<?xml version="1.0" encoding="utf-8"?>
<!-- Generator: Adobe Illustrator 27.7.0, SVG Export Plug-In . SVG Version: 6.00 Build 0)  -->
<svg version="1.1" id="Layer_1" xmlns="http://www.w3.org/2000/svg" xmlns:xlink="http://www.w3.org/1999/xlink" x="0px" y="0px"
	 viewBox="0 0 1620.8 939.52" style="enable-background:new 0 0 1620.8 939.52;" xml:space="preserve">
<style type="text/css">
	.st0{fill:#F4F1EA;}
	.st1{fill:#9C4836;}
	.st2{fill:#FFFFFF;stroke:#212123;stroke-miterlimit:10;}
	.st3{fill:#FFFFFF;stroke:#C85828;stroke-miterlimit:10;}
	.st4{fill:#C85828;}
	.st5{fill:#2D2B2A;}
	.st6{fill:#FFFFFF;stroke:#232121;stroke-miterlimit:10;}
	.st7{fill:#C85828;stroke:#FFFFFF;stroke-width:0.25;stroke-miterlimit:10;}
	.st8{fill:#2B2B2B;}
	.st9{fill:#9C4836;stroke:#F4F1EA;stroke-miterlimit:10;}
	.st10{fill:#F4F1EA;stroke:#2B2B2B;stroke-width:0.25;stroke-miterlimit:10;}
	.st11{fill:#9C4836;stroke:#F4F1EA;stroke-width:0.25;stroke-miterlimit:10;}
	.st12{fill:#F4F1EA;stroke:#F4F1EA;stroke-width:0.25;stroke-miterlimit:10;}
	.st13{fill:#F4F1EA;stroke:#9C4836;stroke-width:0.25;stroke-miterlimit:10;}
	.st14{fill:#9C4836;stroke:#9C4836;stroke-width:0.25;stroke-miterlimit:10;}
	.st15{fill:#F4F1EA;stroke:#F4F1EA;stroke-miterlimit:10;}
	.st16{fill:#F4F1EA;stroke:#FFFFFF;stroke-width:0.25;stroke-miterlimit:10;}
</style>
<rect x="0.7" y="-0.1" class="st0" width="1620" height="939.37"/>
<g>
	<g>
		<path class="st1" d="M516.94,576.89l38.57-186.28h33.97l-38.57,186.28H516.94z"/>
		<path class="st1" d="M627.62,576.89h-33.97l38.57-186.28h50.4c8.08,0,15.01,0.28,20.81,0.84c5.8,0.56,10.88,1.49,15.25,2.78
			c12.25,3.53,21.23,9.1,26.94,16.71c5.71,7.61,8.56,16.57,8.56,26.87c0,7.52-1.04,14.57-3.13,21.16
			c-2.09,6.59-5.38,12.53-9.88,17.82c-4.5,5.29-10.26,9.88-17.26,13.78c-7.01,3.9-15.43,6.96-25.27,9.19v0.56l41.35,76.57h-37.59
			l-37.31-72.12h-22.55L627.62,576.89z M648.51,476.23h13.09c6.22,0,11.79-0.21,16.71-0.63c4.92-0.42,9.33-1.18,13.23-2.3
			c8.82-2.41,15.78-6.34,20.88-11.77c5.1-5.43,7.66-12.46,7.66-21.09c0-4.46-1.02-8.35-3.06-11.7c-2.04-3.34-5.38-5.8-10.02-7.38
			c-2.23-0.74-5.11-1.3-8.63-1.67c-3.53-0.37-7.94-0.56-13.23-0.56h-24.78L648.51,476.23z"/>
		<path class="st1" d="M876.98,529.42h-66.13l-25.76,47.48h-37.87l103.86-186.28h31.74l37.87,186.28h-34.81L876.98,529.42z
			 M826.44,500.87h45.25l-3.76-20.05c-3.06-16.06-5.52-30.96-7.38-44.69h-0.84c-6.59,14.67-13.74,29.01-21.44,43.02L826.44,500.87z"
			/>
		<path class="st1" d="M1010.36,576.89h-33.97l32.72-157.74h-58.47l5.71-28.54h151.06l-5.85,28.54h-58.47L1010.36,576.89z"/>
		<path class="st1" d="M1144.01,576.89l15.59-75.32l-44.55-110.96H1150l30.63,78.24l52.63-78.24h38.7l-78.52,111.66l-15.45,74.63
			H1144.01z"/>
	</g>
	<g>
		<path class="st10" d="M590.09,383.6c-2.99,5.73-10.05,7.98-15.81,5s-8.04-10.04-5.08-15.81c0,0,0.01,0.01,0.03,0.02
			c0.87,0.45,19.61,10.11,20.8,10.77C590.08,383.59,590.09,383.6,590.09,383.6z"/>
		<path class="st11" d="M590.12,383.54l-20.91-10.78c2.98-5.78,10.07-8.04,15.84-5.06C590.84,370.67,593.1,377.76,590.12,383.54z"/>
	</g>
	<g>
		<g>
			<path class="st1" d="M732.59,336.28c-5.79-2.45-10.11-5.79-12.96-10.01c-2.85-4.23-4.28-9.06-4.28-14.49
				c0-4.27,0.75-9.35,2.26-15.22l13.7-4.67l1.4,0.8c-0.43,2.4-0.77,4.54-1.02,6.41c-0.26,1.87-0.38,3.56-0.38,5.07
				c0,4.1,0.78,7.54,2.35,10.35c1.56,2.8,4.25,4.96,8.06,6.48c3.81,1.51,8.97,2.27,15.48,2.27c7.78,0,14.91-0.69,21.38-2.07
				c6.47-1.38,10.68-3.27,12.63-5.68c0-1.69-1.51-3.43-4.53-5.21c-3.02-1.78-8.58-3.56-16.67-5.34l4.47-14.29
				c7.92,1.87,14.09,3.87,18.52,6.01c4.43,2.14,7.53,4.39,9.32,6.74c1.79,2.36,2.68,5.01,2.68,7.95
				c-0.17,5.79-2.53,10.84-7.09,15.16c-4.56,4.32-10.66,7.63-18.33,9.95c-7.66,2.31-16.18,3.47-25.54,3.47
				C745.53,339.95,738.38,338.72,732.59,336.28z M774.35,359.04l-8.17,12.82l-12.39-9.21l-5.87,9.21l-13.03-9.61l8.05-12.55
				l12.64,9.08l5.75-9.08L774.35,359.04z"/>
			<path class="st1" d="M804.24,233.26l-8.17,12.82l-12.52-9.21l-5.62,9.21l-13.15-9.61l8.17-12.55l12.39,8.95l5.75-8.95
				L804.24,233.26z M775.12,290.68c4.85-1.6,8.09-3.02,9.71-4.27c-0.43-3.03-1.21-6.01-2.36-8.95c-1.15-2.94-2.75-6.5-4.79-10.68
				l12.39-10.82h1.73c2.23,5.79,3.92,10.68,5.08,14.69c1.16,4.01,1.74,7.43,1.74,10.28c0,4.18-0.83,7.66-2.49,10.41
				c-1.66,2.76-4.64,5.34-8.95,7.74l-6.47-0.94L775.12,290.68z"/>
			<path class="st1" d="M818.17,316.05l-1.04-0.8v-88.53l15.06-4.14l1.29,0.8l-0.38,89.47L818.17,316.05z"/>
			<path class="st1" d="M894.59,299.89c0.81,0.98,1.21,2.27,1.21,3.87c0,3.47-0.66,6.23-1.98,8.28c-1.32,2.05-3.51,3.07-6.58,3.07
				c-3.92,0-7.37-0.67-10.34-2c-1.62,4.36-4.26,8.35-7.92,11.95c-3.66,3.6-8.09,6.63-13.28,9.08c-5.19,2.45-10.94,4.25-17.24,5.41
				l-8.56-12.29l0.89-1.33c6.39-1.16,12.03-2.83,16.92-5.01c4.9-2.18,8.92-4.61,12.07-7.28c3.15-2.67,5.45-5.48,6.9-8.41
				c-3.66-8.55-6.81-15.62-9.45-21.23l11.37-13.62h1.53l5.49,16.29c1.19,3.47,2.38,6.03,3.58,7.68c1.19,1.65,2.62,2.74,4.28,3.27
				c1.66,0.53,4.02,0.8,7.09,0.8C892.44,298.42,893.78,298.91,894.59,299.89z"/>
			<path class="st1" d="M890.7,298.42h10.22c1.79,0,3.08,0.49,3.89,1.47c0.81,0.98,1.21,2.27,1.21,3.87c0,3.47-0.66,6.23-1.98,8.28
				c-1.32,2.05-3.51,3.07-6.58,3.07h-10.22L890.7,298.42z"/>
			<path class="st1" d="M900.91,298.42h10.22c1.79,0,3.08,0.49,3.89,1.47c0.81,0.98,1.21,2.27,1.21,3.87c0,3.47-0.66,6.23-1.98,8.28
				c-1.32,2.05-3.51,3.07-6.58,3.07h-10.22L900.91,298.42z"/>
			<path class="st1" d="M946.89,334.21l-8.17,12.82l-12.39-9.21l-5.87,9.21l-13.03-9.61l8.05-12.55l12.64,9.08l5.75-9.08
				L946.89,334.21z M911.15,298.42h3.86c2.66,0,5.16-0.09,7.52-0.27c2.35-0.18,3.96-0.44,4.82-0.8c0.08-0.27,0.13-0.76,0.13-1.47
				c0-2.4-0.66-5.39-1.98-8.95c-1.32-3.56-3.09-7.7-5.3-12.42l12.72-10.68h1.27c2.02,4.63,3.71,9.57,5.06,14.82
				c1.35,5.25,2.03,9.44,2.03,12.55c0,3.56-0.55,6.86-1.66,9.88c-1.11,3.03-2.81,5.7-5.11,8.01c-2.13,2.14-4.88,3.67-8.24,4.61
				c-3.36,0.93-8.2,1.4-14.5,1.4h-4.09L911.15,298.42z"/>
			<path class="st1" d="M962.09,308.57c-4.17-4.36-6.26-11.26-6.26-20.7v-61.16l14.69-4.14l1.28,0.8v63.29
				c0,3.03,0.42,5.39,1.28,7.08c0.85,1.69,2.17,2.89,3.96,3.61c1.79,0.71,4.3,1.07,7.53,1.07c1.79,0,3.08,0.45,3.9,1.33
				c0.81,0.89,1.21,2.23,1.21,4.01c0,3.56-0.68,6.34-2.04,8.35c-1.36,2-3.53,3-6.51,3C972.6,315.11,966.26,312.93,962.09,308.57z"/>
			<path class="st1" d="M984.56,298.42h10.22c1.79,0,3.08,0.49,3.89,1.47c0.81,0.98,1.21,2.27,1.21,3.87c0,3.47-0.66,6.23-1.98,8.28
				c-1.32,2.05-3.51,3.07-6.58,3.07h-10.22L984.56,298.42z"/>
			<path class="st1" d="M994.78,298.42H1005c1.79,0,3.08,0.49,3.89,1.47c0.81,0.98,1.21,2.27,1.21,3.87c0,3.47-0.66,6.23-1.98,8.28
				c-1.32,2.05-3.51,3.07-6.58,3.07h-10.22L994.78,298.42z"/>
			<path class="st1" d="M1005,298.42h10.22c1.79,0,3.08,0.49,3.89,1.47c0.81,0.98,1.21,2.27,1.21,3.87c0,3.47-0.66,6.23-1.98,8.28
				c-1.32,2.05-3.51,3.07-6.58,3.07h-10.22L1005,298.42z"/>
			<path class="st1" d="M1015.21,298.42h10.22c1.79,0,3.08,0.49,3.89,1.47c0.81,0.98,1.21,2.27,1.21,3.87
				c0,3.47-0.66,6.23-1.98,8.28c-1.32,2.05-3.51,3.07-6.58,3.07h-10.22L1015.21,298.42z"/>
			<path class="st1" d="M1025.43,298.42h10.22c1.79,0,3.08,0.49,3.89,1.47c0.81,0.98,1.21,2.27,1.21,3.87
				c0,3.47-0.66,6.23-1.98,8.28c-1.32,2.05-3.51,3.07-6.58,3.07h-10.22L1025.43,298.42z"/>
			<path class="st1" d="M1035.65,298.42h10.22c1.79,0,3.08,0.49,3.89,1.47c0.81,0.98,1.21,2.27,1.21,3.87
				c0,3.47-0.66,6.23-1.98,8.28c-1.32,2.05-3.51,3.07-6.58,3.07h-10.22L1035.65,298.42z"/>
			<path class="st1" d="M1045.86,298.42h10.22c1.79,0,3.08,0.49,3.89,1.47c0.81,0.98,1.21,2.27,1.21,3.87
				c0,3.47-0.66,6.23-1.98,8.28c-1.32,2.05-3.51,3.07-6.58,3.07h-10.22L1045.86,298.42z"/>
			<path class="st1" d="M1056.08,298.42h10.22c1.79,0,3.08,0.49,3.89,1.47c0.81,0.98,1.21,2.27,1.21,3.87
				c0,3.47-0.66,6.23-1.98,8.28c-1.32,2.05-3.51,3.07-6.58,3.07h-10.22L1056.08,298.42z"/>
			<path class="st1" d="M1066.3,298.42h10.22c1.79,0,3.08,0.49,3.89,1.47c0.81,0.98,1.21,2.27,1.21,3.87c0,3.47-0.66,6.23-1.98,8.28
				c-1.32,2.05-3.51,3.07-6.58,3.07h-10.22L1066.3,298.42z"/>
			<path class="st1" d="M1076.51,298.42h10.22c1.79,0,3.08,0.49,3.89,1.47c0.81,0.98,1.21,2.27,1.21,3.87
				c0,3.47-0.66,6.23-1.98,8.28c-1.32,2.05-3.51,3.07-6.58,3.07h-10.22L1076.51,298.42z"/>
			<path class="st1" d="M1086.73,298.42h10.22c1.79,0,3.08,0.49,3.89,1.47c0.81,0.98,1.21,2.27,1.21,3.87
				c0,3.47-0.66,6.23-1.98,8.28c-1.32,2.05-3.51,3.07-6.58,3.07h-10.22L1086.73,298.42z"/>
			<path class="st1" d="M1096.95,298.42h10.22c1.79,0,3.08,0.49,3.89,1.47c0.81,0.98,1.21,2.27,1.21,3.87
				c0,3.47-0.66,6.23-1.98,8.28c-1.32,2.05-3.51,3.07-6.58,3.07h-10.22L1096.95,298.42z"/>
			<path class="st1" d="M1107.16,298.42h10.22c1.79,0,3.08,0.49,3.89,1.47c0.81,0.98,1.21,2.27,1.21,3.87
				c0,3.47-0.66,6.23-1.98,8.28c-1.32,2.05-3.51,3.07-6.58,3.07h-10.22L1107.16,298.42z"/>
			<path class="st1" d="M1117.38,298.42h10.22c1.79,0,3.08,0.49,3.89,1.47c0.81,0.98,1.21,2.27,1.21,3.87
				c0,3.47-0.66,6.23-1.98,8.28c-1.32,2.05-3.51,3.07-6.58,3.07h-10.22L1117.38,298.42z"/>
			<path class="st1" d="M1127.6,298.42h10.22c1.79,0,3.08,0.49,3.89,1.47c0.81,0.98,1.21,2.27,1.21,3.87c0,3.47-0.66,6.23-1.98,8.28
				c-1.32,2.05-3.51,3.07-6.58,3.07h-10.22L1127.6,298.42z"/>
			<path class="st1" d="M1137.81,298.42h10.22c1.79,0,3.08,0.49,3.89,1.47c0.81,0.98,1.21,2.27,1.21,3.87
				c0,3.47-0.66,6.23-1.98,8.28c-1.32,2.05-3.51,3.07-6.58,3.07h-10.22L1137.81,298.42z"/>
			<path class="st1" d="M1148.03,298.42h10.22c1.79,0,3.08,0.49,3.89,1.47c0.81,0.98,1.21,2.27,1.21,3.87
				c0,3.47-0.66,6.23-1.98,8.28c-1.32,2.05-3.51,3.07-6.58,3.07h-10.22L1148.03,298.42z"/>
			<path class="st1" d="M1158.25,298.42h10.22c1.79,0,3.08,0.49,3.89,1.47c0.81,0.98,1.21,2.27,1.21,3.87
				c0,3.47-0.66,6.23-1.98,8.28c-1.32,2.05-3.51,3.07-6.58,3.07h-10.22L1158.25,298.42z"/>
			<path class="st1" d="M1168.46,298.42h10.22c1.79,0,3.08,0.49,3.89,1.47c0.81,0.98,1.21,2.27,1.21,3.87
				c0,3.47-0.66,6.23-1.98,8.28c-1.32,2.05-3.51,3.07-6.58,3.07h-10.22L1168.46,298.42z"/>
			<path class="st1" d="M1178.68,298.42h10.22c1.79,0,3.08,0.49,3.89,1.47c0.81,0.98,1.21,2.27,1.21,3.87
				c0,3.47-0.66,6.23-1.98,8.28c-1.32,2.05-3.51,3.07-6.58,3.07h-10.22L1178.68,298.42z"/>
			<path class="st1" d="M1188.9,298.42h10.22c1.79,0,3.08,0.49,3.89,1.47c0.81,0.98,1.21,2.27,1.21,3.87c0,3.47-0.66,6.23-1.98,8.28
				c-1.32,2.05-3.51,3.07-6.58,3.07h-10.22L1188.9,298.42z"/>
			<path class="st1" d="M1199.11,298.42h10.22c1.79,0,3.08,0.49,3.89,1.47c0.81,0.98,1.21,2.27,1.21,3.87
				c0,3.47-0.66,6.23-1.98,8.28c-1.32,2.05-3.51,3.07-6.58,3.07h-10.22L1199.11,298.42z"/>
			<path class="st1" d="M1209.33,298.42h10.22c1.79,0,3.08,0.49,3.89,1.47c0.81,0.98,1.21,2.27,1.21,3.87
				c0,3.47-0.66,6.23-1.98,8.28c-1.32,2.05-3.51,3.07-6.58,3.07h-10.22L1209.33,298.42z"/>
			<path class="st1" d="M1219.55,298.42h10.22c1.79,0,3.08,0.49,3.89,1.47c0.81,0.98,1.21,2.27,1.21,3.87
				c0,3.47-0.66,6.23-1.98,8.28c-1.32,2.05-3.51,3.07-6.58,3.07h-10.22L1219.55,298.42z"/>
			<path class="st1" d="M1229.76,298.42h10.22c1.79,0,3.08,0.49,3.9,1.47c0.81,0.98,1.21,2.27,1.21,3.87c0,3.47-0.66,6.23-1.98,8.28
				c-1.32,2.05-3.51,3.07-6.58,3.07h-10.22L1229.76,298.42z"/>
			<path class="st1" d="M1240,298.42h3.86c2.66,0,5.16-0.09,7.52-0.27c2.35-0.18,3.96-0.44,4.82-0.8c0.08-0.27,0.13-0.76,0.13-1.47
				c0-2.4-0.66-5.39-1.98-8.95c-1.32-3.56-3.09-7.7-5.3-12.42l12.72-10.68h1.27c2.02,4.63,3.71,9.57,5.06,14.82
				c1.35,5.25,2.02,9.44,2.02,12.55c0,3.56-0.55,6.86-1.66,9.88c-1.11,3.03-2.81,5.7-5.11,8.01c-2.13,2.14-4.88,3.67-8.24,4.61
				c-3.36,0.93-8.19,1.4-14.5,1.4h-4.09L1240,298.42z M1276.12,240.33l-8.17,12.82l-12.51-9.21l-5.62,9.21l-13.15-9.61l8.17-12.55
				l12.39,8.95l5.75-8.95L1276.12,240.33z"/>
		</g>
		<g>
			<path class="st1" d="M723.69,281.6c0.15,0.1,0.26,0.26,0.31,0.47c0.13,0.47,0.13,0.86,0.02,1.19c-0.12,0.33-0.39,0.55-0.84,0.67
				c-0.56,0.15-1.08,0.19-1.56,0.13c-0.07,0.65-0.31,1.29-0.71,1.91c-0.4,0.63-0.92,1.21-1.58,1.74c-0.66,0.53-1.42,0.99-2.29,1.39
				l-1.68-1.32l0.08-0.21c0.88-0.4,1.63-0.85,2.26-1.33c0.62-0.48,1.12-0.97,1.47-1.45c0.36-0.48,0.59-0.95,0.69-1.4
				c-0.84-1.01-1.55-1.84-2.13-2.5l1.14-2.27l0.22-0.06l1.38,1.98c0.3,0.42,0.56,0.72,0.79,0.9s0.48,0.27,0.74,0.27
				c0.26,0.01,0.61-0.05,1.05-0.17C723.33,281.49,723.54,281.5,723.69,281.6z"/>
			<path class="st1" d="M723.08,281.56l0.56-0.15c0.38-0.1,0.74-0.21,1.07-0.33c0.33-0.12,0.55-0.21,0.66-0.3
				c0-0.04-0.01-0.11-0.04-0.2c-0.09-0.32-0.29-0.7-0.61-1.13c-0.32-0.43-0.72-0.92-1.21-1.47l1.44-1.93l0.18-0.05
				c0.46,0.54,0.88,1.15,1.27,1.8c0.38,0.66,0.63,1.19,0.74,1.61c0.13,0.48,0.17,0.95,0.12,1.39c-0.05,0.45-0.2,0.88-0.44,1.28
				c-0.23,0.37-0.57,0.68-1.02,0.94c-0.45,0.26-1.13,0.51-2.04,0.75l-0.59,0.16L723.08,281.56z M729.52,284.99l-0.71,2.04
				l-2.12-0.76l-0.51,1.47l-2.22-0.79l0.7-2l2.15,0.73l0.5-1.44L729.52,284.99z"/>
			<path class="st1" d="M730.78,280.95c-0.76-0.43-1.31-1.27-1.65-2.54l-2.22-8.24l1.97-1.13l0.21,0.06l2.29,8.52
				c0.11,0.41,0.26,0.71,0.44,0.9c0.18,0.2,0.42,0.31,0.7,0.33c0.28,0.03,0.66-0.02,1.12-0.15c0.26-0.07,0.46-0.06,0.61,0.03
				c0.15,0.09,0.26,0.25,0.32,0.49c0.13,0.48,0.13,0.88,0.01,1.2c-0.12,0.32-0.4,0.54-0.83,0.66
				C732.53,281.43,731.54,281.38,730.78,280.95z"/>
			<path class="st1" d="M740.42,277.11c0.15,0.1,0.26,0.26,0.31,0.47c0.13,0.47,0.13,0.87,0.01,1.19c-0.11,0.33-0.39,0.55-0.84,0.67
				c-0.49,0.13-1.02,0.19-1.6,0.18c-0.57-0.01-1.07-0.1-1.5-0.27c-0.57,0.77-1.47,1.32-2.71,1.65l-0.35,0.09l-0.11-2.38l0.33-0.09
				c0.74-0.2,1.2-0.4,1.39-0.62c0.07-0.52,0.05-1.42-0.05-2.69l2.23-1.18l0.22,0.08c0.02,0.66,0.02,1.24,0.01,1.72
				c-0.01,0.49-0.06,0.93-0.13,1.34c0.65,0.07,1.37,0,2.17-0.22C740.06,276.99,740.27,277.01,740.42,277.11z M738.57,284.55
				l-2.33-0.82l0.76-2.09l2.3,0.79L738.57,284.55z"/>
			<path class="st1" d="M745.28,271.77c0.62,0.24,1.17,0.64,1.66,1.17c0.49,0.54,0.82,1.14,1,1.81c0.21,0.77,0.19,1.44-0.06,2.02
				c-0.25,0.58-0.71,0.96-1.4,1.15c-0.53,0.14-1.13,0.2-1.81,0.17c-0.68-0.03-1.39-0.18-2.13-0.44c-0.25,0.49-0.58,0.87-1,1.13
				c-0.42,0.26-0.96,0.48-1.64,0.66l-0.11-2.38c0.25-0.07,0.44-0.15,0.57-0.26c0.13-0.11,0.25-0.27,0.33-0.48
				c0.09-0.21,0.18-0.53,0.29-0.97c0.17-0.61,0.34-1.15,0.51-1.61c0.18-0.47,0.43-0.9,0.76-1.3c0.33-0.41,0.74-0.67,1.23-0.8
				C744.07,271.48,744.66,271.52,745.28,271.77z M746.01,275.49c-0.09-0.25-0.25-0.52-0.48-0.82c-0.23-0.3-0.48-0.54-0.75-0.72
				c-0.27-0.18-0.51-0.24-0.72-0.18c-0.21,0.06-0.37,0.23-0.49,0.53c-0.12,0.3-0.26,0.74-0.41,1.34c0.43,0.13,0.83,0.21,1.21,0.25
				c0.38,0.04,0.71,0.02,0.98-0.05C745.6,275.77,745.83,275.65,746.01,275.49z"/>
			<path class="st1" d="M750.72,276.67l-0.18-0.07l-3.21-11.92l2.02-1.14l0.21,0.06l3.18,12.07L750.72,276.67z"/>
		</g>
	</g>
	<g>
		<g>
			<path class="st9" d="M452.46,608.92h-60.31l58.08-280.03H346.42l10.13-50.67h268.17l-10.38,50.67H510.54L452.46,608.92z"/>
		</g>
		<g>
			<path class="st16" d="M536.61,304.67c0,0.74-0.18,1.4-0.54,1.99c-0.36,0.59-0.89,1.09-1.59,1.5c-0.7,0.42-1.57,0.73-2.59,0.95
				c-1.03,0.22-2.21,0.33-3.55,0.33c-0.16,0-0.35,0-0.59-0.01v0.08c0,0.48,0.07,0.9,0.21,1.26c0.14,0.36,0.35,0.65,0.61,0.88
				c0.27,0.23,0.59,0.39,0.98,0.5c0.38,0.11,0.81,0.16,1.28,0.16c0.71,0,1.46-0.09,2.24-0.26c0.78-0.17,1.47-0.41,2.05-0.7
				l-0.59,2.84c-0.56,0.23-1.21,0.41-1.93,0.55c-0.72,0.14-1.49,0.21-2.31,0.21c-0.97,0-1.82-0.13-2.54-0.4
				c-0.72-0.26-1.31-0.64-1.78-1.11c-0.47-0.48-0.82-1.05-1.04-1.7c-0.23-0.65-0.34-1.38-0.34-2.17c0-0.7,0.07-1.4,0.22-2.09
				c0.15-0.69,0.36-1.35,0.64-1.99c0.28-0.63,0.63-1.22,1.05-1.76c0.42-0.54,0.9-1.01,1.45-1.41c0.55-0.4,1.17-0.71,1.85-0.94
				c0.68-0.23,1.43-0.34,2.23-0.34c0.7,0,1.33,0.09,1.9,0.26c0.56,0.17,1.04,0.42,1.44,0.73c0.4,0.31,0.7,0.69,0.92,1.14
				C536.5,303.63,536.61,304.12,536.61,304.67z M533.36,304.67c0-0.3-0.12-0.56-0.36-0.78c-0.24-0.22-0.6-0.33-1.08-0.33
				c-0.36,0-0.74,0.07-1.11,0.22c-0.38,0.15-0.73,0.36-1.06,0.65c-0.33,0.29-0.63,0.64-0.89,1.05c-0.26,0.42-0.47,0.89-0.63,1.43
				c0.96,0,1.78-0.06,2.43-0.19c0.66-0.13,1.18-0.3,1.58-0.51c0.4-0.21,0.69-0.45,0.86-0.72
				C533.27,305.23,533.36,304.95,533.36,304.67z"/>
			<path class="st16" d="M550.48,303.36c0.56-0.75,1.23-1.32,1.99-1.71c0.76-0.4,1.58-0.59,2.43-0.59c0.54,0,1.02,0.07,1.46,0.22
				c0.44,0.15,0.81,0.37,1.13,0.66c0.32,0.29,0.56,0.65,0.74,1.06c0.17,0.42,0.26,0.9,0.26,1.45c0,0.34-0.03,0.71-0.1,1.12
				c-0.06,0.41-0.14,0.82-0.22,1.23l-1.63,7.81h-3.22l1.61-7.76c0.09-0.44,0.15-0.79,0.18-1.05c0.03-0.26,0.05-0.49,0.05-0.67
				c0-0.19-0.03-0.37-0.08-0.53c-0.05-0.16-0.13-0.31-0.24-0.43c-0.11-0.12-0.26-0.22-0.44-0.29c-0.18-0.07-0.41-0.11-0.67-0.11
				c-0.55,0-1.06,0.15-1.54,0.46c-0.48,0.31-0.9,0.73-1.24,1.27c-0.18,0.27-0.34,0.58-0.48,0.93c-0.14,0.35-0.26,0.76-0.36,1.24
				l-1.43,6.94h-3.22l1.61-7.76c0.09-0.44,0.15-0.79,0.18-1.05c0.03-0.26,0.05-0.49,0.05-0.67c0-0.19-0.03-0.37-0.08-0.53
				c-0.05-0.16-0.13-0.31-0.24-0.43c-0.11-0.12-0.26-0.22-0.44-0.29c-0.18-0.07-0.4-0.11-0.67-0.11c-0.5,0-0.98,0.13-1.43,0.4
				c-0.45,0.26-0.85,0.63-1.2,1.09c-0.22,0.3-0.41,0.64-0.57,1.03c-0.16,0.39-0.3,0.84-0.41,1.36l-1.45,6.96h-3.22l2.74-13.23h2.75
				v1.67h0.05c0.22-0.26,0.47-0.52,0.76-0.76s0.61-0.45,0.95-0.64c0.34-0.18,0.71-0.33,1.1-0.44c0.39-0.11,0.8-0.16,1.22-0.16
				c0.81,0,1.5,0.2,2.06,0.59c0.56,0.4,0.95,0.97,1.16,1.71H550.48z"/>
			<path class="st16" d="M569.23,301.05c0.57,0,1.1,0.11,1.57,0.35c0.47,0.23,0.88,0.55,1.22,0.96c0.34,0.41,0.61,0.91,0.79,1.5
				c0.19,0.59,0.28,1.25,0.28,1.98c0,0.69-0.07,1.4-0.21,2.13c-0.14,0.73-0.34,1.43-0.61,2.1c-0.27,0.67-0.6,1.31-0.99,1.9
				s-0.84,1.11-1.36,1.55c-0.51,0.44-1.09,0.79-1.73,1.05c-0.64,0.25-1.33,0.38-2.05,0.38c-0.58,0-1.11-0.09-1.58-0.26
				s-0.87-0.4-1.2-0.68h-0.05l-1.45,6.95h-3.22l4.06-19.58h2.77v1.67h0.05c0.19-0.26,0.41-0.5,0.66-0.74s0.53-0.45,0.84-0.64
				c0.31-0.18,0.65-0.33,1.01-0.44C568.39,301.11,568.79,301.05,569.23,301.05z M563.81,311.54c0.25,0.22,0.54,0.4,0.87,0.55
				c0.34,0.14,0.71,0.22,1.13,0.22c0.41,0,0.8-0.09,1.16-0.27c0.36-0.18,0.69-0.43,0.99-0.75c0.3-0.32,0.56-0.69,0.79-1.11
				c0.23-0.42,0.43-0.87,0.59-1.35c0.16-0.48,0.29-0.97,0.37-1.48c0.08-0.51,0.12-1,0.12-1.48c0-0.66-0.12-1.18-0.37-1.57
				c-0.25-0.39-0.63-0.59-1.15-0.59c-0.45,0-0.93,0.16-1.43,0.47c-0.5,0.32-0.94,0.77-1.34,1.37c-0.24,0.36-0.45,0.76-0.63,1.23
				c-0.18,0.46-0.34,1-0.46,1.6L563.81,311.54z"/>
			<path class="st16" d="M574.33,314.61l2.76-13.23h3.22l-2.76,13.23H574.33z M577.63,298.35l0.71-3.51h3.39l-0.71,3.51H577.63z"/>
			<path class="st16" d="M591.12,304.15c-0.39-0.09-0.77-0.14-1.13-0.14c-0.33,0-0.66,0.04-1,0.11c-0.34,0.07-0.66,0.19-0.98,0.35
				c-0.32,0.16-0.62,0.38-0.9,0.65c-0.28,0.27-0.53,0.6-0.74,1c-0.1,0.19-0.2,0.42-0.29,0.7c-0.1,0.27-0.19,0.65-0.29,1.13
				l-1.38,6.65h-3.22l2.74-13.23h2.75v1.67h0.05c0.52-0.63,1.1-1.12,1.73-1.47c0.64-0.35,1.38-0.53,2.24-0.53
				c0.34,0,0.69,0.03,1.05,0.08L591.12,304.15z"/>
			<path class="st16" d="M603.71,304.67c0,0.74-0.18,1.4-0.54,1.99c-0.36,0.59-0.89,1.09-1.59,1.5c-0.7,0.42-1.57,0.73-2.59,0.95
				c-1.03,0.22-2.21,0.33-3.55,0.33c-0.16,0-0.35,0-0.59-0.01v0.08c0,0.48,0.07,0.9,0.21,1.26c0.14,0.36,0.35,0.65,0.61,0.88
				c0.27,0.23,0.59,0.39,0.98,0.5s0.81,0.16,1.28,0.16c0.71,0,1.46-0.09,2.24-0.26c0.78-0.17,1.47-0.41,2.05-0.7l-0.59,2.84
				c-0.56,0.23-1.21,0.41-1.93,0.55c-0.72,0.14-1.49,0.21-2.31,0.21c-0.97,0-1.82-0.13-2.54-0.4c-0.72-0.26-1.31-0.64-1.78-1.11
				c-0.47-0.48-0.82-1.05-1.04-1.7c-0.23-0.65-0.34-1.38-0.34-2.17c0-0.7,0.07-1.4,0.22-2.09c0.15-0.69,0.36-1.35,0.64-1.99
				c0.28-0.63,0.63-1.22,1.05-1.76c0.42-0.54,0.9-1.01,1.45-1.41c0.55-0.4,1.17-0.71,1.85-0.94c0.68-0.23,1.43-0.34,2.23-0.34
				c0.7,0,1.33,0.09,1.9,0.26c0.56,0.17,1.04,0.42,1.44,0.73c0.4,0.31,0.7,0.69,0.92,1.14C603.6,303.63,603.71,304.12,603.71,304.67
				z M600.46,304.67c0-0.3-0.12-0.56-0.36-0.78c-0.24-0.22-0.6-0.33-1.08-0.33c-0.36,0-0.74,0.07-1.11,0.22
				c-0.38,0.15-0.73,0.36-1.06,0.65c-0.33,0.29-0.63,0.64-0.89,1.05c-0.26,0.42-0.47,0.89-0.63,1.43c0.96,0,1.78-0.06,2.43-0.19
				c0.66-0.13,1.18-0.3,1.58-0.51c0.4-0.21,0.69-0.45,0.86-0.72C600.37,305.23,600.46,304.95,600.46,304.67z"/>
		</g>
		<g>
			<g>
				<path class="st0" d="M346.65,629.78c7.95-36.79,44.07-60.24,80.99-52.46c36.87,7.77,60.5,43.83,52.92,80.72
					c-0.01,0.05-0.02,0.11-0.03,0.16c0,0-0.1-0.02-0.19-0.04c-5.55-1.17-125.59-26.47-133.3-28.29
					C346.75,629.8,346.65,629.78,346.65,629.78z"/>
				<path class="st1" d="M346.64,629.79c13.28-59.45,90.59-73.62,124.27-22.98c9.87,14.97,13.43,33.86,9.72,51.41
					C480.71,658.57,346.75,629.7,346.64,629.79L346.64,629.79z M346.66,629.77c-0.02,0.06,134.36,28.23,133.75,28.4
					c3.71-17.49,0.17-36.32-9.66-51.26C437.14,556.31,360,570.48,346.66,629.77L346.66,629.77z"/>
			</g>
			<path class="st11" d="M346.33,634.39l133.91,28.22c-7.8,37.02-44.05,60.65-81.07,52.84S338.53,671.4,346.33,634.39z"/>
			<path class="st14" d="M346.17,632.88l133.91,28.22c-7.8,37.02-44.05,60.65-81.07,52.84S338.36,669.89,346.17,632.88z"/>
			<path class="st12" d="M346.25,630.81c7.95-36.79,44.07-60.24,80.99-52.46c36.92,7.78,60.57,43.93,52.88,80.88
				c0,0-0.1-0.02-0.19-0.04c-5.55-1.17-125.59-26.47-133.3-28.29C346.34,630.83,346.25,630.81,346.25,630.81z"/>
		</g>
	</g>
</g>
</svg>
