<?xml version="1.0" encoding="UTF-8"?>
<svg id="Layer_2" data-name="Layer 2" xmlns="http://www.w3.org/2000/svg" viewBox="0 0 38.37 38.38">
  <defs>
    <style>
      .cls-1 {
        fill: #808285;
        stroke-width: 0px;
      }
    </style>
  </defs>
  <g id="Layer_1-2" data-name="Layer 1">
    <g>
      <path class="cls-1" d="m19.18,0C8.6,0,0,8.61,0,19.19s8.6,19.19,19.18,19.19,19.19-8.61,19.19-19.19S29.76,0,19.18,0Zm0,37.38C9.15,37.38,1,29.22,1,19.19S9.15,1,19.18,1s18.19,8.16,18.19,18.19-8.16,18.19-18.19,18.19Z"/>
      <path class="cls-1" d="m19.19,29.36c-5.65.03-10.27-4.63-10.25-10.27.01-5.61,4.62-10.24,10.28-10.22,5.6.02,10.26,4.65,10.22,10.33-.04,5.57-4.63,10.19-10.24,10.16Zm7.53-13.31c-1.01-2.78-4.31-5.67-8.82-4.99-1.97.3-3.61,1.23-4.91,2.74-.57.66-1.03,1.4-1.36,2.26,5.05-2.08,10.06-2.08,15.09-.01Zm-5.8,10.58q-.02.47.31.39c.95-.25,1.83-.64,2.63-1.22,2.01-1.46,3.17-3.42,3.44-5.89.02-.15-.02-.16-.16-.15-.69.03-1.33.25-1.93.59-1.47.82-2.55,2.02-3.36,3.47-.52.92-.86,1.9-.93,2.83Zm-3.46.1c.02-.13-.03-.28-.05-.44-.02-.16-.06-.33-.1-.49-.49-1.88-1.51-3.42-2.98-4.67-.79-.67-1.68-1.2-2.72-1.34-.67-.09-.54-.18-.48.45,0,.05,0,.11.02.16.68,3.4,2.68,5.61,6,6.61.33.1.33.09.32-.28Zm1.73-9.12c-.84,0-1.51.66-1.51,1.5,0,.84.66,1.51,1.5,1.51.84,0,1.51-.66,1.51-1.5,0-.84-.66-1.51-1.5-1.51Z"/>
    </g>
  </g>
</svg>