<?xml version="1.0" encoding="UTF-8"?>
<svg id="Layer_2" data-name="Layer 2" xmlns="http://www.w3.org/2000/svg" viewBox="0 0 38.38 38.38">
  <defs>
    <style>
      .cls-1 {
        fill: #808285;
      }
    </style>
  </defs>
  <g id="Layer_1-2" data-name="Layer 1">
    <g>
      <path class="cls-1" d="m19.19,38.38C8.61,38.38,0,29.77,0,19.19S8.61,0,19.19,0s19.19,8.61,19.19,19.19-8.61,19.19-19.19,19.19Zm0-37.38C9.16,1,1,9.16,1,19.19s8.16,18.19,18.19,18.19,18.19-8.16,18.19-18.19S29.22,1,19.19,1Z"/>
      <g>
        <path class="cls-1" d="m24.22,28.23c0,.22-.15.43-.36.49-.24.07-.48-.02-.59-.26-.15-.33-.29-.67-.42-1.01-2.24-5.41-4.48-10.82-6.72-16.23-.04-.1-.08-.19-.12-.29-.12-.32-.02-.6.26-.71.27-.11.52.02.66.33.19.44.38.89.56,1.34,2.21,5.33,4.42,10.66,6.62,15.99.05.11.09.22.1.35Z"/>
        <path class="cls-1" d="m14.18,28.22c0-.1.03-.19.07-.28,1.2-2.9,2.4-5.79,3.6-8.69.05-.13.11-.24.27-.23.16,0,.28.05.37.22.19.37.18.69.02,1.08-1.12,2.65-2.21,5.31-3.31,7.97-.09.23-.21.42-.49.44-.3.02-.53-.2-.53-.51Z"/>
        <path class="cls-1" d="m22.44,10.79s-.04.13-.08.22c-.67,1.61-1.33,3.21-2,4.82-.03.07-.03.2-.14.19-.08,0-.08-.12-.12-.18-.41-.65-.37-1.27-.03-1.96.51-1.05.91-2.15,1.36-3.23.04-.1.08-.2.15-.27.15-.17.33-.24.56-.15.21.09.32.25.31.56Z"/>
        <path class="cls-1" d="m23.62,11.12c.47.03.93.11,1.36.29.19.08.22.17.14.36-.2.44-.38.89-.56,1.34-.06.15-.13.21-.29.14-.47-.21-.97-.33-1.48-.36-.17,0-.23-.07-.15-.25.19-.43.36-.86.54-1.3.08-.2.15-.23.44-.22Z"/>
        <path class="cls-1" d="m30.37,20.6c-.48-.02-.94-.11-1.39-.3-.15-.06-.2-.14-.13-.3.2-.47.4-.94.59-1.41.06-.15.15-.17.28-.11.47.19.95.33,1.46.35.21,0,.25.1.16.28-.17.39-.33.78-.49,1.17-.12.29-.16.32-.49.31Z"/>
        <path class="cls-1" d="m14.83,11.12c.17-.02.33.06.42.31.14.41.32.8.49,1.2.07.17.03.25-.15.26-.52.03-1.02.16-1.5.37-.13.06-.21.02-.26-.11-.19-.47-.39-.95-.59-1.41-.07-.15-.03-.24.12-.3.44-.19.91-.28,1.46-.3Z"/>
        <path class="cls-1" d="m7.94,20.6c-.19.03-.32-.08-.4-.29-.15-.4-.32-.8-.49-1.2-.08-.17-.05-.26.15-.27.52-.04,1.02-.16,1.5-.37.14-.06.2,0,.26.12.19.46.38.93.57,1.39.08.18.01.26-.15.33-.45.18-.91.27-1.43.29Z"/>
        <path class="cls-1" d="m6.89,17.96c-.24.06-.38-.09-.48-.36-.14-.39-.32-.77-.49-1.15-.07-.16-.06-.24.14-.25.51-.03,1.01-.14,1.48-.35.16-.07.25-.05.32.12.18.47.38.93.58,1.39.06.14.03.22-.11.28-.45.18-.9.29-1.44.31Z"/>
        <path class="cls-1" d="m15.89,13.76c.24-.06.38.09.48.37.14.39.31.77.47,1.15.06.15.05.22-.14.23-.51.04-1.01.15-1.48.36-.15.07-.24.04-.3-.12-.19-.47-.38-.95-.58-1.41-.07-.15,0-.22.13-.27.43-.19.89-.29,1.43-.31Z"/>
        <path class="cls-1" d="m29.21,23.21c-.47,0-.9-.11-1.32-.29-.15-.06-.19-.15-.12-.3.2-.47.4-.94.59-1.41.06-.15.14-.17.28-.11.48.2.98.34,1.5.36.18,0,.2.1.14.24-.18.44-.37.87-.55,1.32-.11.29-.34.15-.52.19Z"/>
        <path class="cls-1" d="m9.12,23.21q-.37,0-.55-.43c-.15-.36-.29-.72-.44-1.08-.07-.17-.03-.24.15-.24.5-.02.97-.15,1.43-.34.21-.09.29-.03.36.16.17.45.36.9.55,1.34.07.15.04.23-.12.3-.42.17-.85.29-1.39.29Z"/>
        <path class="cls-1" d="m24.09,14.29c-.21.49-.45,1.04-.69,1.59-.03.07-.13.03-.19,0-.5-.21-1.02-.34-1.56-.37-.14,0-.16-.08-.11-.19.2-.47.39-.94.59-1.42.05-.12.14-.14.25-.14.55-.02,1.07.1,1.57.31.07.03.15.05.15.22Z"/>
        <path class="cls-1" d="m17.97,18.03c0,.11-.08.12-.15.12-.53.03-1.04.16-1.53.36-.13.06-.21.03-.26-.1-.19-.48-.39-.96-.6-1.44-.06-.13-.02-.21.11-.26.52-.23,1.05-.33,1.62-.3.1,0,.17.04.21.13.2.48.4.96.6,1.44,0,.02,0,.03.01.05Z"/>
        <path class="cls-1" d="m31.32,17.95c-.37-.02-.8-.11-1.23-.29-.17-.07-.22-.15-.14-.33.2-.44.38-.89.56-1.34.07-.18.16-.22.33-.14.46.21.95.31,1.46.35.2.01.21.09.15.25-.16.37-.31.75-.47,1.13q-.16.38-.66.37Z"/>
        <path class="cls-1" d="m26.43,16.05s-.02.06-.03.1c-.18.45-.37.89-.56,1.34-.06.16-.13.2-.28.07-.39-.37-.8-.72-1.24-1.03-.11-.07-.15-.15-.09-.28.2-.47.39-.94.58-1.41.06-.16.14-.18.27-.08.45.34.87.72,1.27,1.11.04.04.08.09.07.18Z"/>
        <path class="cls-1" d="m11.92,18.32c0,.09-.04.13-.08.18-.41.38-.81.75-1.25,1.09-.14.11-.22.1-.29-.07-.19-.47-.38-.93-.58-1.39-.06-.14-.03-.23.09-.31.44-.3.83-.65,1.22-1.01.14-.14.22-.12.3.06.18.45.37.9.56,1.34.02.04.03.08.03.1Z"/>
        <path class="cls-1" d="m27.53,13.4s-.02.06-.03.1c-.19.46-.38.91-.56,1.37-.07.17-.15.16-.26.05-.4-.37-.81-.73-1.26-1.04-.12-.08-.12-.17-.07-.29.2-.46.39-.92.58-1.39.06-.15.12-.19.26-.08.44.34.85.7,1.25,1.09.05.05.1.1.09.2Z"/>
        <path class="cls-1" d="m26.12,19.34s.07.05.11.08c.41.37.82.74,1.28,1.06.1.07.12.15.07.27-.2.47-.39.94-.58,1.42-.06.16-.14.17-.27.07-.44-.34-.86-.7-1.25-1.09-.07-.07-.11-.15-.07-.25.2-.48.4-.96.6-1.44.02-.04.03-.1.12-.11Z"/>
        <path class="cls-1" d="m14.19,16.36c0,.07-.05.11-.1.15-.45.32-.86.67-1.26,1.04-.15.14-.22.1-.29-.08-.17-.44-.36-.88-.55-1.32-.06-.13-.04-.23.07-.32.4-.37.8-.74,1.24-1.07.08-.06.18-.15.24.01.21.5.42,1.01.63,1.51,0,.02.01.05.02.07Z"/>
        <path class="cls-1" d="m27.95,19.67s-.08-.04-.12-.07c-.44-.34-.85-.71-1.25-1.09-.1-.09-.11-.18-.06-.3.19-.45.38-.91.56-1.37.07-.17.15-.15.26-.05.4.37.81.73,1.26,1.04.1.07.13.15.08.27-.2.48-.4.96-.6,1.44-.02.05-.04.12-.13.13Z"/>
        <path class="cls-1" d="m11.55,22.3c-.09,0-.11-.05-.13-.11-.2-.49-.41-.97-.61-1.46-.05-.12,0-.19.09-.26.45-.32.86-.67,1.26-1.05.13-.12.19-.1.26.06.18.45.37.9.56,1.34.05.13.05.22-.06.33-.39.39-.82.75-1.25,1.09-.03.03-.07.05-.1.06Z"/>
        <path class="cls-1" d="m10.83,15.69c0,.1-.06.15-.12.2-.38.36-.78.71-1.19,1.04-.16.12-.24.12-.32-.08-.17-.44-.35-.88-.55-1.32-.07-.16-.06-.26.09-.37.43-.3.84-.64,1.22-1.01.08-.08.17-.16.24,0,.21.49.41.97.61,1.46,0,.02.01.05.02.07Z"/>
        <path class="cls-1" d="m29.02,17.03s-.1-.06-.16-.11c-.42-.33-.81-.68-1.19-1.04-.09-.09-.12-.17-.07-.3.19-.45.38-.91.57-1.37.06-.15.14-.19.26-.06.39.38.81.73,1.26,1.04.11.08.13.17.08.29-.2.47-.39.94-.59,1.41-.03.06-.04.14-.16.13Z"/>
        <path class="cls-1" d="m23.88,17.33s.1.05.14.09c.43.33.82.69,1.21,1.06.1.1.12.19.06.32-.19.45-.38.89-.55,1.34-.07.18-.15.17-.28.05-.38-.38-.8-.72-1.24-1.03-.1-.07-.15-.14-.1-.26.2-.49.4-.97.61-1.46.02-.05.05-.12.14-.11Z"/>
        <path class="cls-1" d="m14.52,17.32c.09.01.11.07.13.13.2.48.4.96.6,1.44.05.12.03.19-.08.27-.45.32-.88.67-1.28,1.06-.12.12-.18.08-.24-.06-.19-.46-.37-.91-.57-1.37-.05-.12-.04-.21.06-.3.4-.38.81-.75,1.25-1.09.04-.03.09-.05.12-.07Z"/>
        <path class="cls-1" d="m13.1,13.72c0,.08-.05.12-.11.16-.44.31-.85.66-1.24,1.03-.13.13-.22.14-.29-.06-.17-.44-.36-.88-.55-1.32-.06-.14-.04-.24.07-.34.39-.38.81-.73,1.24-1.07.08-.06.16-.14.22.01.21.51.43,1.02.64,1.53,0,.02,0,.03.02.05Z"/>
        <path class="cls-1" d="m21.53,16.41c.46,0,.89.12,1.31.29.15.06.2.14.13.3-.2.46-.39.92-.58,1.39-.06.16-.15.19-.3.12-.26-.12-.53-.2-.82-.26-.14-.03-.24-.09-.28-.24,0-.03-.02-.07-.04-.1-.33-.47-.17-.92.07-1.36.08-.15.08-.15.5-.15Z"/>
      </g>
    </g>
  </g>
</svg>