<?xml version="1.0" encoding="utf-8"?>
<!-- Generator: Adobe Illustrator 27.7.0, SVG Export Plug-In . SVG Version: 6.00 Build 0)  -->
<svg version="1.1" id="Layer_1" xmlns="http://www.w3.org/2000/svg" xmlns:xlink="http://www.w3.org/1999/xlink" x="0px" y="0px"
	 viewBox="0 0 600 600" style="enable-background:new 0 0 600 600;" xml:space="preserve">
<style type="text/css">
	.st0{fill:#F4F1EA;}
	.st1{fill:#9C4836;}
	.st2{fill:#FFFFFF;stroke:#212123;stroke-miterlimit:10;}
	.st3{fill:#FFFFFF;stroke:#C85828;stroke-miterlimit:10;}
	.st4{fill:#C85828;}
	.st5{fill:#2D2B2A;}
	.st6{fill:#FFFFFF;stroke:#232121;stroke-miterlimit:10;}
	.st7{fill:#C85828;stroke:#FFFFFF;stroke-width:0.25;stroke-miterlimit:10;}
	.st8{fill:#2B2B2B;}
	.st9{fill:#9C4836;stroke:#F4F1EA;stroke-miterlimit:10;}
	.st10{fill:#F4F1EA;stroke:#2B2B2B;stroke-width:0.25;stroke-miterlimit:10;}
	.st11{fill:#9C4836;stroke:#F4F1EA;stroke-width:0.25;stroke-miterlimit:10;}
	.st12{fill:#F4F1EA;stroke:#F4F1EA;stroke-width:0.25;stroke-miterlimit:10;}
	.st13{fill:#F4F1EA;stroke:#9C4836;stroke-width:0.25;stroke-miterlimit:10;}
	.st14{fill:#9C4836;stroke:#9C4836;stroke-width:0.25;stroke-miterlimit:10;}
	.st15{fill:#F4F1EA;stroke:#F4F1EA;stroke-miterlimit:10;}
	.st16{fill:#F4F1EA;stroke:#FFFFFF;stroke-width:0.25;stroke-miterlimit:10;}
</style>
<circle class="st0" cx="300" cy="300" r="202"/>
<g>
	<g>
		<path class="st8" d="M265.43,455.24c0,0.58-0.16,1.03-0.48,1.36c-0.32,0.33-0.77,0.49-1.34,0.49c-0.64,0-1.19-0.08-1.65-0.25
			s-0.89-0.44-1.26-0.81c-0.32,0.47-0.66,0.82-1.04,1.05c-0.37,0.23-0.79,0.35-1.26,0.35c-1.87,0-3.89-1.26-6.08-3.78
			c-0.3,0.41-0.53,0.74-0.68,0.98c-0.03,0.3-0.05,0.61-0.05,0.92c0,1.06,0.11,2.57,0.32,4.51s0.49,3.96,0.83,6.05l-2.33,1.12
			l-0.26-0.17c-0.37-2.26-0.66-4.25-0.88-5.98c-0.22-1.73-0.33-3-0.33-3.82c0-1.23,0.14-2.27,0.43-3.12
			c0.29-0.85,0.77-1.68,1.44-2.48c0.6-0.73,1.27-1.4,2-2c0.74-0.61,1.47-1.09,2.19-1.44c0.72-0.35,1.37-0.53,1.95-0.53
			c0.58,0,1.08,0.14,1.5,0.43c0.42,0.29,0.82,0.72,1.2,1.3c0.38,0.58,0.85,1.42,1.42,2.52c0.37,0.71,0.68,1.22,0.92,1.54
			c0.24,0.32,0.53,0.54,0.87,0.66c0.34,0.12,0.81,0.18,1.43,0.18C265.05,454.31,265.43,454.62,265.43,455.24z M259.38,454.06
			l-0.14-0.25c-0.56-1.23-1.04-2.12-1.44-2.66c-0.4-0.54-0.77-0.81-1.11-0.81c-0.32,0-0.72,0.14-1.21,0.43
			c-0.49,0.29-1,0.68-1.54,1.16c0.77,0.9,1.51,1.59,2.23,2.09c0.72,0.5,1.34,0.74,1.86,0.74
			C258.52,454.76,258.97,454.53,259.38,454.06z"/>
		<path class="st8" d="M266.35,444.84v-1.71l6.86-1.29v1.74L266.35,444.84z"/>
		<path class="st8" d="M274.87,454.55c0.17,0.16,0.25,0.39,0.25,0.69c0,0.52-0.13,0.96-0.38,1.32s-0.71,0.53-1.36,0.53
			c-0.99,0-1.91-0.11-2.75-0.32s-1.53-0.55-2.07-0.99c-0.49,0.45-1.05,0.78-1.69,0.99c-0.64,0.21-1.41,0.32-2.28,0.32h-0.95
			l0.64-2.77h0.76c0.41,0,0.8-0.04,1.18-0.11c0.37-0.07,0.66-0.19,0.87-0.34c0.35-0.67,0.75-2.04,1.18-4.12l2.8-0.67l0.28,0.2
			c-0.22,0.95-0.44,1.78-0.64,2.48c-0.21,0.7-0.43,1.32-0.67,1.86c0.9,0.47,2.22,0.7,3.98,0.7
			C274.41,454.31,274.7,454.39,274.87,454.55z M267.08,463.3l-2.55-1.77l1.57-2.35l2.52,1.74L267.08,463.3z M271.09,463.3
			l-2.52-1.77l1.57-2.35l2.52,1.74L271.09,463.3z"/>
		<path class="st8" d="M276.69,463.22v-1.68l6.7-1.29v1.71L276.69,463.22z"/>
		<path class="st8" d="M282.14,444.77c0.68,0.64,1.2,1.5,1.57,2.56c0.36,1.07,0.55,2.21,0.55,3.45c0,1.25-0.15,2.33-0.45,3.24
			s-0.73,1.56-1.29,1.97c-0.49,0.3-1.08,0.53-1.79,0.69c-0.71,0.16-1.62,0.27-2.75,0.32c-1.12,0.06-2.66,0.08-4.62,0.08l0.66-2.77
			c2.53,0,4.37-0.05,5.5-0.14c1.13-0.09,1.94-0.23,2.41-0.42c0.06-0.24,0.12-0.71,0.2-1.4c-0.88,0.21-1.85,0.31-2.9,0.31
			c-1.25,0-2.19-0.29-2.83-0.88c-0.64-0.59-0.96-1.4-0.96-2.42c0-0.86,0.2-1.72,0.6-2.58c0.4-0.86,0.93-1.57,1.6-2.13
			c0.66-0.56,1.38-0.84,2.14-0.84C280.67,443.81,281.46,444.13,282.14,444.77z M278.04,441.14l-2.52-1.76l1.54-2.35l2.52,1.74
			L278.04,441.14z M278.11,449.83c0.36,0.19,0.91,0.28,1.63,0.28c0.9,0,1.71-0.07,2.42-0.2c-0.08-0.58-0.24-1.13-0.47-1.65
			c-0.24-0.52-0.53-0.95-0.88-1.27s-0.73-0.49-1.12-0.49c-0.35,0-0.69,0.12-1.02,0.35c-0.32,0.23-0.59,0.54-0.79,0.92
			s-0.31,0.78-0.31,1.19C277.56,449.35,277.74,449.64,278.11,449.83z M281.99,441.14l-2.52-1.76l1.57-2.35l2.52,1.74L281.99,441.14z
			"/>
		<path class="st8" d="M288.29,443.44v-1.71l6.86-1.29v1.74L288.29,443.44z"/>
		<path class="st8" d="M294.27,448.6c0.68,0.64,1.2,1.48,1.57,2.54c0.36,1.05,0.55,2.2,0.55,3.43c0,1.29-0.33,2.49-0.98,3.61
			c-0.65,1.12-1.65,2.04-2.98,2.75c-1.33,0.71-2.97,1.08-4.92,1.12l-1.4-2.07l0.17-0.25c1.99-0.06,3.64-0.38,4.95-0.98
			c1.31-0.6,2.21-1.43,2.7-2.49c-0.76,0.17-1.62,0.25-2.57,0.25c-1.25,0-2.2-0.29-2.82-0.88c-0.63-0.59-0.94-1.4-0.94-2.42
			c0-0.86,0.2-1.72,0.59-2.59c0.39-0.87,0.92-1.58,1.6-2.13c0.67-0.55,1.39-0.83,2.16-0.83
			C292.81,447.64,293.59,447.96,294.27,448.6z M290.24,453.67c0.35,0.19,0.88,0.28,1.6,0.28c0.91,0,1.72-0.07,2.42-0.2
			c-0.08-0.58-0.24-1.13-0.48-1.67c-0.24-0.53-0.54-0.96-0.89-1.27s-0.72-0.48-1.11-0.48c-0.35,0-0.68,0.12-1,0.35
			s-0.58,0.54-0.77,0.92c-0.19,0.38-0.29,0.78-0.29,1.19C289.72,453.19,289.89,453.48,290.24,453.67z"/>
		<path class="st8" d="M314.49,437.25c0.34,0.22,0.59,0.52,0.77,0.9c0.18,0.37,0.27,0.76,0.27,1.15c0,0.75-0.26,1.42-0.77,2.02
			c-0.51,0.6-1.28,1.08-2.28,1.46c-1.01,0.37-2.23,0.6-3.67,0.67l-0.39-1.37c0.21-0.3,0.31-0.6,0.31-0.9c0-0.19-0.05-0.34-0.14-0.45
			c-0.09-0.11-0.23-0.17-0.42-0.17c-0.24,0-0.51,0.12-0.81,0.36l-0.78-1.12c0.22-0.22,0.5-0.42,0.84-0.59s0.68-0.25,1.04-0.25
			c0.56,0,1,0.18,1.3,0.55c0.31,0.36,0.46,0.82,0.46,1.36c0,0.3-0.05,0.61-0.14,0.92c0.82-0.07,1.53-0.24,2.13-0.5
			c-0.41-0.26-0.71-0.53-0.91-0.81s-0.29-0.63-0.29-1.06c0-0.39,0.11-0.79,0.32-1.18c0.21-0.39,0.5-0.71,0.85-0.95
			c0.35-0.24,0.75-0.36,1.18-0.36S314.15,437.03,314.49,437.25z M312.65,438.69c-0.2,0.16-0.29,0.36-0.29,0.6
			c0,0.22,0.09,0.42,0.28,0.6c0.19,0.18,0.48,0.37,0.87,0.57c0.34-0.34,0.5-0.71,0.5-1.12c0-0.24-0.07-0.45-0.21-0.63
			c-0.14-0.18-0.32-0.27-0.55-0.27C313.05,438.45,312.85,438.53,312.65,438.69z"/>
		<path class="st8" d="M314.3,448.64c0.74,0.64,1.32,1.47,1.74,2.48c0.42,1.01,0.63,2.03,0.63,3.05c0,1.08-0.15,1.87-0.44,2.35
			c-0.29,0.49-0.75,0.73-1.39,0.73c-0.38,0-0.97-0.04-1.8-0.11c-0.86-0.07-1.56-0.11-2.08-0.11c-0.43,0-0.88,0.05-1.35,0.14
			c-0.47,0.09-0.84,0.21-1.12,0.34c-0.09,0.3-0.14,0.76-0.14,1.37c0,0.67,0.06,1.4,0.17,2.19c0.11,0.78,0.28,1.82,0.5,3.11
			c0.15,0.71,0.26,1.35,0.34,1.93l-2.39,1.12l-0.22-0.17l-0.42-2.58c-0.17-0.97-0.31-1.92-0.44-2.83c-0.13-0.92-0.19-1.62-0.19-2.13
			c0-0.86,0.2-1.69,0.6-2.48c0.4-0.79,1.02-1.45,1.85-1.96s1.88-0.77,3.15-0.77c0.87,0,1.85,0.09,2.92,0.28
			c-0.02-0.73-0.15-1.42-0.41-2.07s-0.59-1.18-0.99-1.58s-0.83-0.6-1.28-0.6c-0.43,0-0.82,0.22-1.17,0.66
			c-0.35,0.44-0.61,1.1-0.77,1.98l-1.76,0.17l-0.37-0.14c0.07-1.1,0.33-2.06,0.77-2.87s0.98-1.42,1.61-1.83
			c0.63-0.41,1.3-0.62,1.99-0.62C312.74,447.67,313.57,447.99,314.3,448.64z"/>
		<path class="st8" d="M320.17,457.25l-0.19-0.11v-18.63l2.5-0.67l0.19,0.14l-0.03,18.74L320.17,457.25z"/>
		<path class="st8" d="M326.2,437.84v-1.71l6.86-1.29v1.74L326.2,437.84z"/>
		<path class="st8" d="M335.86,454.55c0.17,0.16,0.25,0.39,0.25,0.69c0,0.52-0.13,0.96-0.39,1.32c-0.26,0.35-0.72,0.53-1.37,0.53
			c-0.95,0-1.73-0.21-2.33-0.62c-0.32,0.9-0.86,1.73-1.64,2.49c-0.77,0.77-1.74,1.42-2.88,1.98c-1.15,0.55-2.44,0.95-3.88,1.19
			l-1.48-2.04l0.17-0.25c2.32-0.43,4.11-1.09,5.39-1.97s2.12-1.88,2.51-2.98c-0.43-1.1-1.14-2.63-2.13-4.59l2.02-2.21h0.31
			c0.24,0.67,0.62,1.71,1.15,3.11l0.31,0.81c0.26,0.69,0.51,1.2,0.74,1.51s0.52,0.53,0.87,0.64c0.35,0.11,0.84,0.17,1.5,0.17
			C335.4,454.31,335.69,454.39,335.86,454.55z M330.17,445.12l-2.61-1.82l1.62-2.41l2.61,1.79L330.17,445.12z"/>
		<path class="st8" d="M335.97,463.22v-1.68l6.7-1.29v1.71L335.97,463.22z"/>
		<path class="st8" d="M345.58,454.55c0.17,0.16,0.25,0.39,0.25,0.69c0,0.52-0.13,0.96-0.38,1.32s-0.71,0.53-1.36,0.53
			c-0.99,0-1.91-0.11-2.75-0.32s-1.53-0.55-2.07-0.99c-0.49,0.45-1.05,0.78-1.69,0.99c-0.64,0.21-1.41,0.32-2.28,0.32h-0.95
			l0.64-2.77h0.76c0.41,0,0.8-0.04,1.18-0.11c0.37-0.07,0.66-0.19,0.87-0.34c0.35-0.67,0.75-2.04,1.18-4.12l2.8-0.67l0.28,0.2
			c-0.22,0.95-0.44,1.78-0.64,2.48c-0.21,0.7-0.43,1.32-0.67,1.86c0.9,0.47,2.22,0.7,3.98,0.7
			C345.13,454.31,345.42,454.39,345.58,454.55z M338.92,446.07l-2.52-1.76l1.54-2.35l2.52,1.74L338.92,446.07z M342.87,446.07
			l-2.52-1.76l1.57-2.35l2.52,1.74L342.87,446.07z"/>
		<path class="st8" d="M347.06,435.62c-0.44-0.43-0.66-1-0.66-1.71c0-0.82,0.23-1.48,0.7-1.99c0.47-0.5,1.09-0.76,1.88-0.76
			c0.71,0,1.28,0.24,1.71,0.73c0.43,0.49,0.64,1.12,0.64,1.91c0,0.75-0.23,1.34-0.69,1.79c-0.46,0.45-1.06,0.67-1.81,0.67
			S347.49,436.05,347.06,435.62z M349.58,434.53c0.18-0.17,0.27-0.4,0.27-0.7c0-0.32-0.09-0.57-0.28-0.77s-0.42-0.29-0.7-0.29
			c-0.3,0-0.54,0.09-0.71,0.28c-0.18,0.19-0.27,0.44-0.27,0.76c0,0.3,0.09,0.54,0.27,0.71c0.18,0.18,0.41,0.27,0.69,0.27
			C349.15,434.78,349.4,434.7,349.58,434.53z"/>
		<path class="st8" d="M344.74,454.31c0.54,0,1.02-0.03,1.45-0.08c0.42-0.06,0.79-0.18,1.1-0.36c0.14-0.56,0.2-1.28,0.2-2.16v-13.2
			l2.42-0.67l0.24,0.14v13.5c0,1.46-0.24,2.59-0.71,3.4s-1.15,1.38-2.03,1.71c-0.88,0.33-1.99,0.49-3.33,0.49L344.74,454.31z"/>
		<path class="st8" d="M353.96,457.25l-0.19-0.11v-18.63l2.5-0.67l0.19,0.14l-0.03,18.74L353.96,457.25z"/>
	</g>
	<g>
		<path class="st9" d="M323.29,318.35H287.4l34.57-166.66h-61.78l6.03-30.15h159.6l-6.18,30.15h-61.78L323.29,318.35z"/>
	</g>
	<g>
		<path class="st16" d="M373.37,137.27c0,0.44-0.11,0.83-0.32,1.18s-0.53,0.65-0.95,0.89c-0.42,0.25-0.93,0.43-1.54,0.56
			c-0.61,0.13-1.32,0.2-2.11,0.2c-0.09,0-0.21,0-0.35-0.01v0.05c0,0.29,0.04,0.54,0.13,0.75c0.08,0.21,0.21,0.39,0.37,0.52
			c0.16,0.14,0.35,0.23,0.58,0.3s0.48,0.09,0.76,0.09c0.42,0,0.87-0.05,1.33-0.15c0.47-0.1,0.87-0.24,1.22-0.42l-0.35,1.69
			c-0.34,0.14-0.72,0.25-1.15,0.33c-0.43,0.08-0.89,0.13-1.38,0.13c-0.58,0-1.08-0.08-1.51-0.24s-0.78-0.38-1.06-0.66
			c-0.28-0.29-0.49-0.62-0.62-1.01c-0.14-0.39-0.2-0.82-0.2-1.29c0-0.42,0.04-0.83,0.13-1.24c0.09-0.41,0.21-0.81,0.38-1.18
			c0.17-0.38,0.38-0.73,0.63-1.05c0.25-0.32,0.54-0.6,0.87-0.84c0.33-0.24,0.69-0.42,1.1-0.56c0.41-0.14,0.85-0.2,1.33-0.2
			c0.42,0,0.79,0.05,1.13,0.15c0.33,0.1,0.62,0.25,0.86,0.43c0.24,0.19,0.42,0.41,0.55,0.68S373.37,136.95,373.37,137.27z
			 M371.44,137.27c0-0.18-0.07-0.33-0.21-0.46c-0.14-0.13-0.35-0.2-0.64-0.2c-0.22,0-0.44,0.04-0.66,0.13
			c-0.22,0.09-0.44,0.22-0.63,0.39c-0.2,0.17-0.38,0.38-0.53,0.63c-0.16,0.25-0.28,0.53-0.37,0.85c0.57,0,1.06-0.04,1.45-0.11
			c0.39-0.08,0.7-0.18,0.94-0.3c0.24-0.12,0.41-0.27,0.51-0.43C371.39,137.6,371.44,137.44,371.44,137.27z"/>
		<path class="st16" d="M381.63,136.49c0.34-0.44,0.73-0.78,1.19-1.02c0.46-0.24,0.94-0.35,1.45-0.35c0.32,0,0.61,0.04,0.87,0.13
			c0.26,0.09,0.49,0.22,0.67,0.39c0.19,0.17,0.34,0.38,0.44,0.63c0.1,0.25,0.15,0.54,0.15,0.86c0,0.2-0.02,0.42-0.06,0.67
			c-0.04,0.24-0.08,0.49-0.13,0.73l-0.97,4.65h-1.92l0.96-4.62c0.05-0.26,0.09-0.47,0.11-0.62c0.02-0.16,0.03-0.29,0.03-0.4
			c0-0.11-0.02-0.22-0.04-0.32c-0.03-0.1-0.08-0.18-0.14-0.26c-0.06-0.07-0.15-0.13-0.26-0.17c-0.11-0.04-0.24-0.06-0.4-0.06
			c-0.33,0-0.63,0.09-0.92,0.28c-0.29,0.18-0.53,0.44-0.74,0.76c-0.11,0.16-0.2,0.35-0.28,0.55c-0.08,0.21-0.15,0.45-0.21,0.74
			l-0.85,4.13h-1.92l0.96-4.62c0.05-0.26,0.09-0.47,0.11-0.62c0.02-0.16,0.03-0.29,0.03-0.4c0-0.11-0.02-0.22-0.04-0.32
			c-0.03-0.1-0.08-0.18-0.14-0.26c-0.06-0.07-0.15-0.13-0.26-0.17c-0.11-0.04-0.24-0.06-0.4-0.06c-0.3,0-0.58,0.08-0.85,0.24
			c-0.27,0.16-0.51,0.37-0.71,0.65c-0.13,0.18-0.24,0.38-0.34,0.61s-0.18,0.5-0.24,0.81l-0.86,4.14h-1.92l1.63-7.88h1.63v0.99h0.03
			c0.13-0.16,0.28-0.31,0.46-0.45c0.17-0.14,0.36-0.27,0.56-0.38s0.42-0.2,0.65-0.26c0.23-0.07,0.47-0.1,0.72-0.1
			c0.48,0,0.89,0.12,1.23,0.35c0.34,0.24,0.57,0.58,0.69,1.02H381.63z"/>
		<path class="st16" d="M392.79,135.12c0.34,0,0.65,0.07,0.93,0.21c0.28,0.14,0.52,0.33,0.73,0.57c0.2,0.24,0.36,0.54,0.47,0.89
			c0.11,0.35,0.17,0.75,0.17,1.18c0,0.41-0.04,0.83-0.12,1.27c-0.08,0.43-0.2,0.85-0.36,1.25c-0.16,0.4-0.36,0.78-0.59,1.13
			c-0.23,0.35-0.5,0.66-0.81,0.92c-0.31,0.26-0.65,0.47-1.03,0.62s-0.79,0.23-1.22,0.23c-0.35,0-0.66-0.05-0.94-0.15
			c-0.28-0.1-0.52-0.24-0.71-0.41h-0.03l-0.86,4.14h-1.92l2.41-11.65h1.65v0.99h0.03c0.11-0.15,0.25-0.3,0.39-0.44
			c0.15-0.14,0.32-0.27,0.5-0.38s0.38-0.2,0.6-0.26C392.29,135.15,392.53,135.12,392.79,135.12z M389.56,141.36
			c0.15,0.13,0.32,0.24,0.52,0.33c0.2,0.09,0.43,0.13,0.67,0.13c0.24,0,0.47-0.05,0.69-0.16s0.41-0.26,0.59-0.45
			c0.18-0.19,0.33-0.41,0.47-0.66c0.14-0.25,0.26-0.52,0.35-0.8c0.1-0.29,0.17-0.58,0.22-0.88s0.07-0.59,0.07-0.88
			c0-0.39-0.07-0.7-0.22-0.93s-0.37-0.35-0.68-0.35c-0.27,0-0.55,0.09-0.85,0.28c-0.29,0.19-0.56,0.46-0.8,0.82
			c-0.14,0.21-0.27,0.46-0.37,0.73s-0.2,0.59-0.28,0.95L389.56,141.36z"/>
		<path class="st16" d="M395.82,143.19l1.64-7.88h1.92l-1.64,7.88H395.82z M397.79,133.51l0.42-2.09h2.02l-0.42,2.09H397.79z"/>
		<path class="st16" d="M405.82,136.96c-0.23-0.05-0.46-0.08-0.67-0.08c-0.19,0-0.39,0.02-0.59,0.07c-0.2,0.04-0.4,0.11-0.58,0.21
			c-0.19,0.1-0.37,0.23-0.54,0.39c-0.17,0.16-0.31,0.36-0.44,0.6c-0.06,0.11-0.12,0.25-0.17,0.42c-0.06,0.16-0.12,0.39-0.17,0.67
			l-0.82,3.96h-1.92l1.63-7.88h1.63v0.99h0.03c0.31-0.37,0.65-0.67,1.03-0.87c0.38-0.21,0.82-0.31,1.33-0.31
			c0.2,0,0.41,0.02,0.63,0.05L405.82,136.96z"/>
		<path class="st16" d="M413.31,137.27c0,0.44-0.11,0.83-0.32,1.18c-0.21,0.35-0.53,0.65-0.95,0.89c-0.42,0.25-0.93,0.43-1.54,0.56
			c-0.61,0.13-1.32,0.2-2.11,0.2c-0.09,0-0.21,0-0.35-0.01v0.05c0,0.29,0.04,0.54,0.13,0.75c0.08,0.21,0.21,0.39,0.37,0.52
			c0.16,0.14,0.35,0.23,0.58,0.3s0.48,0.09,0.76,0.09c0.42,0,0.87-0.05,1.33-0.15c0.47-0.1,0.87-0.24,1.22-0.42l-0.35,1.69
			c-0.34,0.14-0.72,0.25-1.15,0.33s-0.89,0.13-1.38,0.13c-0.58,0-1.08-0.08-1.51-0.24c-0.43-0.16-0.78-0.38-1.06-0.66
			c-0.28-0.29-0.49-0.62-0.62-1.01c-0.14-0.39-0.2-0.82-0.2-1.29c0-0.42,0.04-0.83,0.13-1.24c0.09-0.41,0.21-0.81,0.38-1.18
			c0.17-0.38,0.38-0.73,0.63-1.05s0.54-0.6,0.87-0.84c0.33-0.24,0.7-0.42,1.1-0.56c0.41-0.14,0.85-0.2,1.32-0.2
			c0.42,0,0.79,0.05,1.13,0.15c0.34,0.1,0.62,0.25,0.86,0.43s0.42,0.41,0.55,0.68S413.31,136.95,413.31,137.27z M411.37,137.27
			c0-0.18-0.07-0.33-0.21-0.46c-0.14-0.13-0.35-0.2-0.64-0.2c-0.22,0-0.44,0.04-0.66,0.13s-0.44,0.22-0.63,0.39
			c-0.2,0.17-0.38,0.38-0.53,0.63c-0.16,0.25-0.28,0.53-0.37,0.85c0.57,0,1.06-0.04,1.45-0.11c0.39-0.08,0.7-0.18,0.94-0.3
			c0.24-0.12,0.41-0.27,0.51-0.43C411.32,137.6,411.37,137.44,411.37,137.27z"/>
	</g>
	<g>
		<g>
			<path class="st8" d="M234.79,421.94c-1.51-0.64-2.64-1.51-3.39-2.62c-0.75-1.1-1.12-2.37-1.12-3.78c0-1.12,0.2-2.44,0.59-3.98
				l3.58-1.22l0.37,0.21c-0.11,0.63-0.2,1.19-0.27,1.67c-0.07,0.49-0.1,0.93-0.1,1.33c0,1.07,0.2,1.97,0.61,2.7
				c0.41,0.73,1.11,1.3,2.1,1.69c0.99,0.4,2.34,0.59,4.04,0.59c2.03,0,3.89-0.18,5.58-0.54s2.79-0.85,3.3-1.48
				c0-0.44-0.39-0.89-1.18-1.36c-0.79-0.46-2.24-0.93-4.36-1.39l1.17-3.73c2.07,0.49,3.68,1.01,4.84,1.57
				c1.16,0.56,1.97,1.15,2.43,1.76c0.47,0.62,0.7,1.31,0.7,2.08c-0.04,1.51-0.66,2.83-1.85,3.96s-2.79,1.99-4.79,2.6
				s-4.23,0.91-6.67,0.91C238.17,422.9,236.3,422.58,234.79,421.94z M245.7,427.89l-2.13,3.35l-3.24-2.41l-1.53,2.41l-3.4-2.51
				l2.1-3.28l3.3,2.37l1.5-2.37L245.7,427.89z"/>
			<path class="st8" d="M253.5,395.03l-2.13,3.35l-3.27-2.41l-1.47,2.41l-3.44-2.51l2.13-3.28l3.24,2.34l1.5-2.34L253.5,395.03z
				 M245.9,410.03c1.27-0.42,2.11-0.79,2.54-1.12c-0.11-0.79-0.32-1.57-0.62-2.34c-0.3-0.77-0.72-1.7-1.25-2.79l3.24-2.83h0.45
				c0.58,1.51,1.03,2.79,1.33,3.84c0.3,1.05,0.45,1.94,0.45,2.69c0,1.09-0.22,2-0.65,2.72s-1.21,1.39-2.34,2.02l-1.69-0.24
				L245.9,410.03z"/>
			<path class="st8" d="M257.14,416.66l-0.27-0.21v-23.12l3.93-1.08l0.34,0.21l-0.1,23.37L257.14,416.66z"/>
			<path class="st8" d="M277.1,412.44c0.21,0.26,0.32,0.59,0.32,1.01c0,0.91-0.17,1.63-0.52,2.16s-0.92,0.8-1.72,0.8
				c-1.02,0-1.92-0.17-2.7-0.52c-0.42,1.14-1.11,2.18-2.07,3.12c-0.96,0.94-2.11,1.73-3.47,2.37s-2.86,1.11-4.5,1.41l-2.23-3.21
				l0.23-0.35c1.67-0.3,3.14-0.74,4.42-1.31c1.28-0.57,2.33-1.2,3.15-1.9c0.82-0.7,1.42-1.43,1.8-2.2
				c-0.96-2.23-1.78-4.08-2.47-5.54l2.97-3.56h0.4l1.43,4.25c0.31,0.91,0.62,1.58,0.93,2.01c0.31,0.43,0.68,0.71,1.12,0.85
				s1.05,0.21,1.85,0.21C276.54,412.05,276.89,412.18,277.1,412.44z"/>
			<path class="st8" d="M276.08,412.05h2.67c0.47,0,0.81,0.13,1.02,0.38s0.32,0.59,0.32,1.01c0,0.91-0.17,1.63-0.52,2.16
				s-0.92,0.8-1.72,0.8h-2.67L276.08,412.05z"/>
			<path class="st8" d="M278.75,412.05h2.67c0.47,0,0.81,0.13,1.02,0.38s0.32,0.59,0.32,1.01c0,0.91-0.17,1.63-0.52,2.16
				s-0.92,0.8-1.72,0.8h-2.67L278.75,412.05z"/>
			<path class="st8" d="M290.76,421.4l-2.13,3.35l-3.24-2.41l-1.53,2.41l-3.4-2.51l2.1-3.28l3.3,2.37l1.5-2.37L290.76,421.4z
				 M281.43,412.05h1.01c0.69,0,1.35-0.02,1.96-0.07c0.61-0.05,1.03-0.12,1.26-0.21c0.02-0.07,0.03-0.2,0.03-0.38
				c0-0.63-0.17-1.41-0.52-2.34c-0.35-0.93-0.81-2.01-1.38-3.24l3.32-2.79h0.33c0.53,1.21,0.97,2.5,1.32,3.87s0.53,2.46,0.53,3.28
				c0,0.93-0.15,1.79-0.43,2.58c-0.29,0.79-0.73,1.49-1.33,2.09c-0.56,0.56-1.27,0.96-2.15,1.2c-0.88,0.24-2.14,0.37-3.79,0.37
				h-1.07L281.43,412.05z"/>
			<path class="st8" d="M294.73,414.7c-1.09-1.14-1.63-2.94-1.63-5.41v-15.97l3.84-1.08l0.33,0.21v16.53c0,0.79,0.11,1.41,0.33,1.85
				c0.22,0.44,0.57,0.76,1.03,0.94c0.47,0.19,1.12,0.28,1.97,0.28c0.47,0,0.81,0.12,1.02,0.35c0.21,0.23,0.32,0.58,0.32,1.05
				c0,0.93-0.18,1.66-0.53,2.18c-0.36,0.52-0.92,0.79-1.7,0.79C297.47,416.41,295.82,415.84,294.73,414.7z"/>
			<path class="st8" d="M300.6,412.05h2.67c0.47,0,0.81,0.13,1.02,0.38s0.32,0.59,0.32,1.01c0,0.91-0.17,1.63-0.52,2.16
				s-0.92,0.8-1.72,0.8h-2.67L300.6,412.05z"/>
			<path class="st8" d="M303.27,412.05h2.67c0.47,0,0.81,0.13,1.02,0.38s0.32,0.59,0.32,1.01c0,0.91-0.17,1.63-0.52,2.16
				s-0.92,0.8-1.72,0.8h-2.67L303.27,412.05z"/>
			<path class="st8" d="M305.94,412.05h2.67c0.47,0,0.81,0.13,1.02,0.38s0.32,0.59,0.32,1.01c0,0.91-0.17,1.63-0.52,2.16
				s-0.92,0.8-1.72,0.8h-2.67L305.94,412.05z"/>
			<path class="st8" d="M308.6,412.05h2.67c0.47,0,0.81,0.13,1.02,0.38s0.32,0.59,0.32,1.01c0,0.91-0.17,1.63-0.52,2.16
				s-0.92,0.8-1.72,0.8h-2.67L308.6,412.05z"/>
			<path class="st8" d="M311.27,412.05h2.67c0.47,0,0.81,0.13,1.02,0.38s0.32,0.59,0.32,1.01c0,0.91-0.17,1.63-0.52,2.16
				s-0.92,0.8-1.72,0.8h-2.67L311.27,412.05z"/>
			<path class="st8" d="M313.94,412.05h2.67c0.47,0,0.81,0.13,1.02,0.38s0.32,0.59,0.32,1.01c0,0.91-0.17,1.63-0.52,2.16
				s-0.92,0.8-1.72,0.8h-2.67L313.94,412.05z"/>
			<path class="st8" d="M316.61,412.05h2.67c0.47,0,0.81,0.13,1.02,0.38s0.32,0.59,0.32,1.01c0,0.91-0.17,1.63-0.52,2.16
				s-0.92,0.8-1.72,0.8h-2.67L316.61,412.05z"/>
			<path class="st8" d="M319.28,412.05h2.67c0.47,0,0.81,0.13,1.02,0.38s0.32,0.59,0.32,1.01c0,0.91-0.17,1.63-0.52,2.16
				s-0.92,0.8-1.72,0.8h-2.67L319.28,412.05z"/>
			<path class="st8" d="M321.95,412.05h2.67c0.47,0,0.81,0.13,1.02,0.38s0.32,0.59,0.32,1.01c0,0.91-0.17,1.63-0.52,2.16
				s-0.92,0.8-1.72,0.8h-2.67L321.95,412.05z"/>
			<path class="st8" d="M324.61,412.05h2.67c0.47,0,0.81,0.13,1.02,0.38s0.32,0.59,0.32,1.01c0,0.91-0.17,1.63-0.52,2.16
				s-0.92,0.8-1.72,0.8h-2.67L324.61,412.05z"/>
			<path class="st8" d="M327.28,412.05h2.67c0.47,0,0.81,0.13,1.02,0.38s0.32,0.59,0.32,1.01c0,0.91-0.17,1.63-0.52,2.16
				s-0.92,0.8-1.72,0.8h-2.67L327.28,412.05z"/>
			<path class="st8" d="M329.95,412.05h2.67c0.47,0,0.81,0.13,1.02,0.38s0.32,0.59,0.32,1.01c0,0.91-0.17,1.63-0.52,2.16
				s-0.92,0.8-1.72,0.8h-2.67L329.95,412.05z"/>
			<path class="st8" d="M332.62,412.05h2.67c0.47,0,0.81,0.13,1.02,0.38s0.32,0.59,0.32,1.01c0,0.91-0.17,1.63-0.52,2.16
				s-0.92,0.8-1.72,0.8h-2.67L332.62,412.05z"/>
			<path class="st8" d="M335.29,412.05h2.67c0.47,0,0.81,0.13,1.02,0.38s0.32,0.59,0.32,1.01c0,0.91-0.17,1.63-0.52,2.16
				s-0.92,0.8-1.72,0.8h-2.67L335.29,412.05z"/>
			<path class="st8" d="M337.96,412.05h2.67c0.47,0,0.81,0.13,1.02,0.38s0.32,0.59,0.32,1.01c0,0.91-0.17,1.63-0.52,2.16
				s-0.92,0.8-1.72,0.8h-2.67L337.96,412.05z"/>
			<path class="st8" d="M340.62,412.05h2.67c0.47,0,0.81,0.13,1.02,0.38s0.32,0.59,0.32,1.01c0,0.91-0.17,1.63-0.52,2.16
				s-0.92,0.8-1.72,0.8h-2.67L340.62,412.05z"/>
			<path class="st8" d="M343.29,412.05h2.67c0.47,0,0.81,0.13,1.02,0.38s0.32,0.59,0.32,1.01c0,0.91-0.17,1.63-0.52,2.16
				s-0.92,0.8-1.72,0.8h-2.67L343.29,412.05z"/>
			<path class="st8" d="M345.96,412.05h2.67c0.47,0,0.81,0.13,1.02,0.38s0.32,0.59,0.32,1.01c0,0.91-0.17,1.63-0.52,2.16
				s-0.92,0.8-1.72,0.8h-2.67L345.96,412.05z"/>
			<path class="st8" d="M348.63,412.05h2.67c0.47,0,0.81,0.13,1.02,0.38s0.32,0.59,0.32,1.01c0,0.91-0.17,1.63-0.52,2.16
				s-0.92,0.8-1.72,0.8h-2.67L348.63,412.05z"/>
			<path class="st8" d="M351.3,412.05h2.67c0.47,0,0.81,0.13,1.02,0.38s0.32,0.59,0.32,1.01c0,0.91-0.17,1.63-0.52,2.16
				s-0.92,0.8-1.72,0.8h-2.67L351.3,412.05z"/>
			<path class="st8" d="M353.97,412.05h2.67c0.47,0,0.81,0.13,1.02,0.38s0.32,0.59,0.32,1.01c0,0.91-0.17,1.63-0.52,2.16
				s-0.92,0.8-1.72,0.8h-2.67L353.97,412.05z"/>
			<path class="st8" d="M356.63,412.05h2.67c0.47,0,0.81,0.13,1.02,0.38s0.32,0.59,0.32,1.01c0,0.91-0.17,1.63-0.52,2.16
				s-0.92,0.8-1.72,0.8h-2.67L356.63,412.05z"/>
			<path class="st8" d="M359.3,412.05h2.67c0.47,0,0.81,0.13,1.02,0.38s0.32,0.59,0.32,1.01c0,0.91-0.17,1.63-0.52,2.16
				s-0.92,0.8-1.72,0.8h-2.67L359.3,412.05z"/>
			<path class="st8" d="M361.97,412.05h2.67c0.47,0,0.81,0.13,1.02,0.38s0.32,0.59,0.32,1.01c0,0.91-0.17,1.63-0.52,2.16
				s-0.92,0.8-1.72,0.8h-2.67L361.97,412.05z"/>
			<path class="st8" d="M364.64,412.05h2.67c0.47,0,0.81,0.13,1.02,0.38s0.32,0.59,0.32,1.01c0,0.91-0.17,1.63-0.52,2.16
				s-0.92,0.8-1.72,0.8h-2.67L364.64,412.05z"/>
			<path class="st8" d="M367.31,412.05h1.01c0.69,0,1.35-0.02,1.96-0.07c0.61-0.05,1.03-0.12,1.26-0.21
				c0.02-0.07,0.03-0.2,0.03-0.38c0-0.63-0.17-1.41-0.52-2.34c-0.35-0.93-0.81-2.01-1.38-3.24l3.32-2.79h0.33
				c0.53,1.21,0.97,2.5,1.32,3.87s0.53,2.46,0.53,3.28c0,0.93-0.15,1.79-0.43,2.58c-0.29,0.79-0.73,1.49-1.33,2.09
				c-0.56,0.56-1.27,0.96-2.15,1.2c-0.88,0.24-2.14,0.37-3.79,0.37h-1.07L367.31,412.05z M376.75,396.88l-2.13,3.35l-3.27-2.41
				l-1.47,2.41l-3.44-2.51l2.13-3.28l3.24,2.34l1.5-2.34L376.75,396.88z"/>
		</g>
		<g>
			<path class="st8" d="M232.48,407.67c0.04,0.03,0.07,0.07,0.08,0.12c0.03,0.12,0.03,0.23,0,0.31c-0.03,0.09-0.1,0.14-0.22,0.17
				c-0.15,0.04-0.28,0.05-0.41,0.03c-0.02,0.17-0.08,0.34-0.18,0.5c-0.1,0.16-0.24,0.32-0.41,0.45c-0.17,0.14-0.37,0.26-0.6,0.36
				l-0.44-0.35l0.02-0.06c0.23-0.11,0.43-0.22,0.59-0.35c0.16-0.13,0.29-0.25,0.38-0.38c0.09-0.13,0.15-0.25,0.18-0.37
				c-0.22-0.26-0.4-0.48-0.56-0.65l0.3-0.59l0.06-0.01l0.36,0.52c0.08,0.11,0.15,0.19,0.21,0.23c0.06,0.05,0.12,0.07,0.19,0.07
				s0.16-0.01,0.27-0.04C232.38,407.64,232.44,407.65,232.48,407.67z"/>
			<path class="st8" d="M232.32,407.66l0.15-0.04c0.1-0.03,0.19-0.06,0.28-0.09c0.09-0.03,0.15-0.05,0.17-0.08
				c0-0.01,0-0.03-0.01-0.05c-0.02-0.09-0.08-0.18-0.16-0.29c-0.08-0.11-0.19-0.24-0.32-0.38l0.38-0.51l0.05-0.01
				c0.12,0.14,0.23,0.3,0.33,0.47c0.1,0.17,0.17,0.31,0.2,0.42c0.04,0.13,0.04,0.25,0.03,0.37c-0.01,0.12-0.05,0.23-0.12,0.33
				c-0.06,0.1-0.15,0.18-0.27,0.25c-0.12,0.07-0.3,0.13-0.53,0.2l-0.15,0.04L232.32,407.66z M234,408.56l-0.19,0.53l-0.55-0.2
				l-0.13,0.38l-0.58-0.21l0.18-0.52l0.56,0.19l0.13-0.38L234,408.56z"/>
			<path class="st8" d="M234.33,407.5c-0.2-0.11-0.34-0.33-0.43-0.66l-0.58-2.15l0.51-0.29l0.06,0.02l0.6,2.23
				c0.03,0.11,0.07,0.18,0.12,0.24c0.05,0.05,0.11,0.08,0.18,0.09c0.07,0.01,0.17-0.01,0.29-0.04c0.07-0.02,0.12-0.01,0.16,0.01
				s0.07,0.07,0.08,0.13c0.03,0.12,0.03,0.23,0,0.31c-0.03,0.08-0.11,0.14-0.22,0.17C234.79,407.63,234.53,407.62,234.33,407.5z"/>
			<path class="st8" d="M236.85,406.5c0.04,0.03,0.07,0.07,0.08,0.12c0.03,0.12,0.03,0.23,0,0.31c-0.03,0.08-0.1,0.14-0.22,0.17
				c-0.13,0.03-0.27,0.05-0.42,0.05c-0.15,0-0.28-0.03-0.39-0.07c-0.15,0.2-0.38,0.35-0.71,0.43l-0.09,0.03l-0.03-0.62l0.09-0.02
				c0.19-0.05,0.31-0.11,0.36-0.16c0.02-0.14,0.01-0.37-0.01-0.7l0.58-0.31l0.06,0.02c0.01,0.17,0.01,0.32,0,0.45
				s-0.01,0.24-0.03,0.35c0.17,0.02,0.36,0,0.57-0.06C236.75,406.47,236.81,406.47,236.85,406.5z M236.36,408.44l-0.61-0.21
				l0.2-0.55l0.6,0.21L236.36,408.44z"/>
			<path class="st8" d="M238.12,405.11c0.16,0.06,0.31,0.17,0.43,0.31c0.13,0.14,0.21,0.3,0.26,0.47c0.05,0.2,0.05,0.38-0.01,0.53
				c-0.06,0.15-0.19,0.25-0.37,0.3c-0.14,0.04-0.29,0.05-0.47,0.04c-0.18-0.01-0.36-0.05-0.56-0.12c-0.06,0.13-0.15,0.23-0.26,0.29
				c-0.11,0.07-0.25,0.12-0.43,0.17l-0.03-0.62c0.06-0.02,0.11-0.04,0.15-0.07c0.04-0.03,0.07-0.07,0.09-0.12
				c0.02-0.05,0.05-0.14,0.08-0.25c0.04-0.16,0.09-0.3,0.13-0.42c0.05-0.12,0.11-0.23,0.2-0.34c0.09-0.11,0.19-0.18,0.32-0.21
				C237.8,405.03,237.96,405.04,238.12,405.11z M238.31,406.08c-0.02-0.06-0.07-0.14-0.12-0.21c-0.06-0.08-0.12-0.14-0.2-0.19
				c-0.07-0.05-0.13-0.06-0.19-0.05c-0.05,0.02-0.1,0.06-0.13,0.14s-0.07,0.19-0.11,0.35c0.11,0.03,0.22,0.06,0.32,0.07
				c0.1,0.01,0.19,0,0.26-0.01C238.2,406.15,238.26,406.12,238.31,406.08z"/>
			<path class="st8" d="M239.54,406.39l-0.05-0.02l-0.84-3.11l0.53-0.3l0.06,0.01l0.83,3.15L239.54,406.39z"/>
		</g>
	</g>
	<g>
		<g>
			<path class="st0" d="M260.32,330.76c4.73-21.89,26.23-35.85,48.2-31.22c21.94,4.62,36.01,26.09,31.49,48.04
				c-0.01,0.03-0.01,0.06-0.02,0.1c0,0-0.06-0.01-0.11-0.02c-3.3-0.7-74.74-15.75-79.33-16.84
				C260.38,330.77,260.32,330.76,260.32,330.76z"/>
			<path class="st1" d="M260.31,330.77c3.22-15.79,16.53-28.73,32.4-31.49c21.8-4.2,43.57,10.66,47.52,32.53
				c1,5.24,0.93,10.67-0.14,15.89l-0.02,0.11l-0.11-0.02C320.11,343.57,280.15,335.05,260.31,330.77L260.31,330.77z M260.33,330.75
				c19.87,4.14,59.83,12.59,79.69,16.81c0,0-0.13,0.09-0.13,0.09c1.07-5.2,1.14-10.59,0.15-15.81
				c-2.8-15.81-15.74-29.05-31.48-32.22C286.91,294.84,264.89,309.06,260.33,330.75L260.33,330.75z"/>
		</g>
		<path class="st11" d="M260.13,333.5l79.7,16.8c-4.64,22.03-26.22,36.09-48.25,31.45S255.49,355.53,260.13,333.5z"/>
		<path class="st14" d="M260.03,332.6l79.7,16.8c-4.64,22.03-26.22,36.09-48.25,31.45C269.45,376.21,255.39,354.63,260.03,332.6z"/>
		<path class="st12" d="M260.08,331.37c4.73-21.89,26.23-35.85,48.2-31.22c21.97,4.63,36.05,26.15,31.47,48.13
			c0,0-0.06-0.01-0.11-0.02c-3.3-0.7-74.74-15.75-79.33-16.84C260.14,331.39,260.08,331.37,260.08,331.37z"/>
	</g>
</g>
</svg>
