<?xml version="1.0" encoding="utf-8"?>
<!-- Generator: Adobe Illustrator 27.7.0, SVG Export Plug-In . SVG Version: 6.00 Build 0)  -->
<svg version="1.1" id="Layer_1" xmlns="http://www.w3.org/2000/svg" xmlns:xlink="http://www.w3.org/1999/xlink" x="0px" y="0px"
	 viewBox="0 0 180 181" style="enable-background:new 0 0 180 181;" xml:space="preserve">
<style type="text/css">
	.st0{fill:#F4F1EA;}
	.st1{fill:#9C4836;}
	.st2{fill:#FFFFFF;stroke:#212123;stroke-miterlimit:10;}
	.st3{fill:#FFFFFF;stroke:#C85828;stroke-miterlimit:10;}
	.st4{fill:#C85828;}
	.st5{fill:#2D2B2A;}
	.st6{fill:#FFFFFF;stroke:#232121;stroke-miterlimit:10;}
	.st7{fill:#C85828;stroke:#FFFFFF;stroke-width:0.25;stroke-miterlimit:10;}
	.st8{fill:#2B2B2B;}
	.st9{fill:#9C4836;stroke:#F4F1EA;stroke-miterlimit:10;}
	.st10{fill:#F4F1EA;stroke:#2B2B2B;stroke-width:0.25;stroke-miterlimit:10;}
	.st11{fill:#9C4836;stroke:#F4F1EA;stroke-width:0.25;stroke-miterlimit:10;}
	.st12{fill:#F4F1EA;stroke:#F4F1EA;stroke-width:0.25;stroke-miterlimit:10;}
	.st13{fill:#F4F1EA;stroke:#9C4836;stroke-width:0.25;stroke-miterlimit:10;}
	.st14{fill:#9C4836;stroke:#9C4836;stroke-width:0.25;stroke-miterlimit:10;}
	.st15{fill:#F4F1EA;stroke:#F4F1EA;stroke-miterlimit:10;}
	.st16{fill:#F4F1EA;stroke:#FFFFFF;stroke-width:0.25;stroke-miterlimit:10;}
</style>
<g>
	<g>
		<path class="st0" d="M5.96,74.45C13.32,28.14,56.62-3.53,103.09,3.6c46.4,7.12,78.29,50.35,71.4,96.75
			c-0.01,0.07-0.02,0.13-0.03,0.2c0,0-0.12-0.02-0.24-0.04C167.24,99.45,16.16,76.26,6.44,74.53C6.08,74.47,5.96,74.45,5.96,74.45z"
			/>
		<path class="st1" d="M5.95,74.46C18.38-0.4,113.55-23.36,158.93,37.31c13.31,17.94,19.04,41.19,15.64,63.26
			C174.67,100.92,6.06,74.36,5.95,74.46L5.95,74.46z M5.97,74.44c0,0.05,168.97,25.9,168.38,26.09c3.41-22.02-2.3-45.21-15.57-63.12
			C113.47-23.22,18.46-0.25,5.97,74.44L5.97,74.44z"/>
	</g>
	<path class="st11" d="M5.88,80.21l168.53,25.86c-7.15,46.59-50.61,78.48-97.2,71.34C30.63,170.25-1.26,126.79,5.88,80.21z"/>
	<path class="st14" d="M5.57,78.34l168.53,25.86c-7.15,46.59-50.61,78.48-97.2,71.34C30.32,168.39-1.57,124.92,5.57,78.34z"/>
	<path class="st12" d="M5.53,75.77c7.35-46.31,50.66-77.98,97.12-70.85s78.38,50.47,71.37,96.96c0,0-0.12-0.02-0.24-0.04
		c-6.98-1.07-158.06-24.26-167.77-25.99C5.65,75.78,5.53,75.77,5.53,75.77z"/>
</g>
</svg>
