<?xml version="1.0" encoding="UTF-8"?>
<svg id="Layer_2" data-name="Layer 2" xmlns="http://www.w3.org/2000/svg" viewBox="0 0 38.37 38.38">
  <defs>
    <style>
      .cls-1 {
        fill: #808285;
      }

      .cls-1, .cls-2 {
        stroke-width: 0px;
      }

      .cls-2 {
        fill: none;
      }
    </style>
  </defs>
  <g id="Layer_1-2" data-name="Layer 1">
    <g>
      <path class="cls-1" d="m19.18,0C8.6,0,0,8.61,0,19.19s8.6,19.19,19.18,19.19,19.19-8.61,19.19-19.19S29.76,0,19.18,0Zm0,37.38C9.15,37.38,1,29.22,1,19.19S9.15,1,19.18,1s18.19,8.16,18.19,18.19-8.16,18.19-18.19,18.19Z"/>
      <g>
        <path class="cls-1" d="m23.26,29.45v.05h-2.77c-2.38-.55-4.24-4.92-4.24-10.23,0-5.6,2.07-10.15,4.64-10.28h-.68c-2.63,0-4.76,4.6-4.76,10.28,0,5.31,1.86,9.68,4.25,10.23h-4.03c-2.88,0-5.21-4.55-5.21-10.23s2.33-10.29,5.21-10.29h6.92c-2.33.41-4.9,3.72-4.67,10.4.24,7.1,2.31,9.85,4.67,10.08.01.01.02.01.04.01.1.02.21.02.31.02s.21-.02.32-.04Z"/>
        <path class="cls-1" d="m23.28,8.99c-2.62,0-4.76,4.61-4.76,10.29,0,5.17,1.77,9.45,4.07,10.18.01.01.02.01.04.01.03.02.06.02.09.03.18.05.37.07.56.07,2.63,0,4.76-4.6,4.76-10.29s-2.13-10.29-4.76-10.29Zm.07,18.54c-2.14,0-3.87-3.75-3.87-8.37s1.73-8.36,3.87-8.36,3.87,3.74,3.87,8.36-1.74,8.37-3.87,8.37Z"/>
        <path class="cls-1" d="m25.1,19.11c0,2.14-.8,3.89-1.79,3.89s-1.8-1.75-1.8-3.89.8-3.89,1.8-3.89,1.79,1.74,1.79,3.89Z"/>
        <path class="cls-2" d="m25.1,19.11c0,2.14-.8,3.89-1.79,3.89s-1.8-1.75-1.8-3.89.8-3.89,1.8-3.89,1.79,1.74,1.79,3.89Z"/>
      </g>
    </g>
  </g>
</svg>