<?xml version="1.0" encoding="UTF-8"?>
<svg id="Layer_2" data-name="Layer 2" xmlns="http://www.w3.org/2000/svg" viewBox="0 0 38.37 38.38">
  <defs>
    <style>
      .cls-1 {
        fill: #808285;
      }

      .cls-2 {
        fill: none;
      }
    </style>
  </defs>
  <g id="Layer_1-2" data-name="Layer 1">
    <g>
      <path class="cls-1" d="m19.18,0C8.6,0,0,8.61,0,19.19s8.6,19.19,19.18,19.19,19.19-8.61,19.19-19.19S29.76,0,19.18,0Zm0,37.38C9.15,37.38,1,29.22,1,19.19S9.15,1,19.18,1s18.19,8.16,18.19,18.19-8.16,18.19-18.19,18.19Z"/>
      <g>
        <path class="cls-1" d="m19.66,28.1s.03.01.04.01h-3.28,3.24Z"/>
        <path class="cls-1" d="m23.26,28.06v.05h-2.77s-.03-.01-.04-.01h2.23s-.06-.02-.09-.03c.12,0,.23.02.35.02.1,0,.21-.02.32-.03Z"/>
        <path class="cls-1" d="m22.94,28.09c-.12,0-.23-.01-.35-.02.03,0,.06,0,.09.02.01,0,.02.01.04.01.02.01.03.01.05.01h.49v-.05c-.11.01-.22.03-.32.03Z"/>
        <path class="cls-1" d="m25.1,17.71c0,2.15-.81,3.89-1.8,3.89s-1.8-1.74-1.8-3.89.81-3.89,1.8-3.89,1.8,1.74,1.8,3.89Z"/>
        <path class="cls-2" d="m21.5,17.71c0-2.15.81-3.89,1.8-3.89s1.8,1.74,1.8,3.89-.81,3.89-1.8,3.89-1.8-1.74-1.8-3.89Z"/>
      </g>
      <path class="cls-1" d="m23.28,7.59h-.69s-6.92-.01-6.92-.01c-2.88,0-5.21,4.61-5.21,10.29s2.33,10.24,5.21,10.24h3.99s.79-.01.79-.01h2.23s-.06-.02-.09-.03c.12,0,.23.02.35.02.1,0,.21-.02.32-.03v.05h-.49c.16.05.34.07.51.07,2.63,0,4.76-4.61,4.76-10.29s-2.13-10.3-4.76-10.3Zm.07,18.54c-2.14,0-3.87-3.75-3.87-8.36s1.73-8.37,3.87-8.37,3.87,3.75,3.87,8.37-1.74,8.36-3.87,8.36Z"/>
      <path class="cls-1" d="m22.94,29.49h-.26s-.06-.01-.09-.02c.12,0,.23.02.35.02Z"/>
      <g>
        <path class="cls-1" d="m25.15,28.77c.56,0,1.1-.03,1.63-.06.59-.03,1.19-.05,1.8-.06,1.08,0,1.69.15,1.4.35-.23.16-.89.25-1.88.27-.49,0-.99,0-1.47.03-.64.03-1.1.11-1.15.21-.05.09.24.15.73.15.28,0,.55-.01.83,0,.52,0,.93.06,1.09.14.23.12-.12.24-.78.26-.52.02-1.03,0-1.54-.02-.36,0-.71-.03-1.08-.02-.58,0-.9.09-.74.19.16.11.5.2,1,.27.59.07,1.22.13,1.88.18.35.02.69.05,1,.09.78.09.97.24.52.39-.53.18-1.59.28-2.58.23-.55-.02-.95-.09-1.28-.17-.33-.08-.56-.18-.82-.27-.13-.05-.25-.09-.38-.14-.66-.22-1.89-.26-2.92-.19-1.01.07-1.85.19-2.49.35-.35.09-.69.18-1.09.26-.53.11-1.11.2-1.89.23-.91.03-1.62-.07-1.59-.24,0-.03.05-.06.13-.09.18-.07.42-.13.7-.19.4-.08.71-.16.96-.26.38-.15.03-.26-.83-.28-.61-.01-1.22,0-1.82.01-1.11.02-2.2.05-3.31.07-.14,0-.28,0-.42,0-.85,0-1.31-.11-1.13-.27.14-.13.58-.21,1.24-.25.52-.03,1.06-.04,1.6-.04.92,0,1.84,0,2.74-.04.39-.02.77-.04,1.11-.09.19-.03.36-.06.47-.1.24-.09.12-.17-.32-.23-.38-.05-.82-.06-1.25-.07-.9-.03-1.8,0-2.7,0-.29,0-.57,0-.84-.03-.75-.05-1-.19-.56-.32.56-.16,1.38-.22,2.36-.2.77.01,1.51.05,2.27.08.4.01.81.02,1.22.01.12,0,.26,0,.31-.03.04-.02-.06-.04-.13-.05-.53-.11-1.15-.21-1.7-.32-.6-.12-1.08-.25-1.27-.41-.15-.13-.06-.26.4-.37.61-.15,1.55-.17,2.3-.04.31.05.55.11.72.18.22.09.42.18.61.27.12.06.27.11.51.16.26.05.57.05.86,0,.2-.03.33-.07.45-.11.21-.07.33-.15.45-.24.14-.09.31-.18.52-.27.15-.06.36-.12.76-.12.32,0,.65.05.8.13.14.07.14.14.19.21.02.03.03.06.06.09.09.08.44.12.86.09.27-.02.49-.05.7-.09.36-.07.67-.14.96-.22.21-.06.43-.11.71-.16.48-.08,1.04-.1,1.48-.05.49.06.72.18.54.29-.14.08-.37.15-.63.22-.35.09-.75.18-1.03.28-.17.06-.31.12-.37.19-.1.12.19.19.8.2.11,0,.22,0,.32,0Zm-7.91-.03c.11,0,.3,0,.48,0,.95-.04,1.6-.16,2.09-.32.1-.03.18-.07.24-.1.08-.04,0-.08-.19-.1-.2-.02-.39,0-.5.04-.03.01-.05.02-.08.03-.52.23-1.44.33-2.74.29-.23,0-.41.01-.46.05-.06.04.03.07.25.09.27.02.55.03.91.02Z"/>
        <path class="cls-1" d="m22.47,31.35c.02.06-.04.12-.16.17-.27.13-.85.19-1.56.15-.76-.04-1.15-.15-1.27-.29-.1-.12.07-.23.45-.32.43-.11,1.16-.13,1.73-.05.6.08.79.21.8.34Z"/>
        <path class="cls-1" d="m10.1,28.41c0,.13-.54.24-1.23.24-.68,0-1.25-.11-1.25-.24,0-.13.55-.24,1.23-.24.69,0,1.25.11,1.25.24Z"/>
        <path class="cls-1" d="m17.87,27.42c0,.11-.46.2-1.03.2-.55,0-1.05-.09-1.07-.2-.01-.11.47-.2,1.04-.2.56,0,1.06.09,1.06.2Z"/>
        <path class="cls-1" d="m29.28,30.24c0-.11.45-.2,1.03-.2.58,0,1.04.09,1.04.2,0,.11-.47.2-1.03.2-.58,0-1.04-.09-1.04-.2Z"/>
      </g>
      <path class="cls-1" d="m9.59,25.88c.14-.14.3-.21.5-.22.23,0,.42.07.57.24.07.07.11.16.15.25.12.28.18.58.23.88.02.11.03.21.04.32,0,.03,0,.03-.02.02-.31-.04-.62-.09-.93-.18-.13-.04-.25-.08-.37-.15-.25-.13-.38-.34-.39-.62-.01-.21.07-.39.21-.54Z"/>
      <path class="cls-1" d="m6.05,25.88c.14-.14.3-.21.5-.22.23,0,.42.07.57.24.07.07.11.16.15.25.12.28.18.58.23.88.02.11.03.21.04.32,0,.03,0,.03-.02.02-.31-.04-.62-.09-.93-.18-.13-.04-.25-.08-.37-.15-.25-.13-.38-.34-.39-.62-.01-.21.07-.39.21-.54Z"/>
      <path class="cls-1" d="m7.49,22.65c.14-.14.3-.21.5-.22.23,0,.42.07.57.24.07.07.11.16.15.25.12.28.18.58.23.88.02.11.03.21.04.32,0,.03,0,.03-.02.02-.31-.04-.62-.09-.93-.18-.13-.04-.25-.08-.37-.15-.25-.13-.38-.34-.39-.62-.01-.21.07-.39.21-.54Z"/>
      <path class="cls-1" d="m28.96,26.87c.07.18.07.36,0,.54-.08.21-.24.35-.45.43-.09.03-.19.04-.29.04-.31,0-.6-.06-.9-.14-.1-.03-.21-.06-.31-.09-.02,0-.03,0-.01-.03.16-.27.33-.53.54-.77.09-.1.18-.2.28-.28.22-.17.46-.21.72-.11.2.08.33.22.41.41Z"/>
      <path class="cls-1" d="m30.39,23.64c.07.18.07.36,0,.54-.08.21-.24.35-.45.43-.09.03-.19.04-.29.04-.31,0-.6-.06-.9-.14-.1-.03-.21-.06-.31-.09-.02,0-.03,0-.01-.03.16-.27.33-.53.54-.77.09-.1.18-.2.28-.28.22-.17.46-.21.72-.11.2.08.33.22.41.41Z"/>
      <path class="cls-1" d="m32.76,25.52c.07.18.07.36,0,.54-.08.21-.24.35-.45.43-.09.03-.19.04-.29.04-.31,0-.6-.06-.9-.14-.1-.03-.21-.06-.31-.09-.02,0-.03,0-.01-.03.16-.27.33-.53.54-.77.09-.1.18-.2.28-.28.22-.17.46-.21.72-.11.2.08.33.22.41.41Z"/>
    </g>
  </g>
</svg>